  0
SECTION
  2
HEADER
  9
$ACADVER
  1
AC1009
  9
$DWGCODEPAGE
  3
ansi_1252
  9
$INSBASE
 10
0.0
 20
0.0
 30
0.0
  9
$EXTMIN
 10
1.451846568797122
 20
1.733717096482275
 30
0.0
  9
$EXTMAX
 10
14.18310068781001
 20
21.73427336119415
 30
0.0
  9
$LIMMIN
 10
0.0
 20
0.0
  9
$LIMMAX
 10
12.0
 20
9.0
  9
$ORTHOMODE
 70
     0
  9
$REGENMODE
 70
     1
  9
$FILLMODE
 70
     1
  9
$QTEXTMODE
 70
     0
  9
$MIRRTEXT
 70
     1
  9
$DRAGMODE
 70
     2
  9
$LTSCALE
 40
1.0
  9
$OSMODE
 70
    37
  9
$ATTMODE
 70
     1
  9
$TEXTSIZE
 40
0.2
  9
$TRACEWID
 40
0.05
  9
$TEXTSTYLE
  7
STANDARD
  9
$CLAYER
  8
0
  9
$CELTYPE
  6
BYLAYER
  9
$CECOLOR
 62
   256
  9
$DIMSCALE
 40
1.0
  9
$DIMASZ
 40
0.18
  9
$DIMEXO
 40
0.0625
  9
$DIMDLI
 40
0.38
  9
$DIMRND
 40
0.0
  9
$DIMDLE
 40
0.0
  9
$DIMEXE
 40
0.18
  9
$DIMTP
 40
0.0
  9
$DIMTM
 40
0.0
  9
$DIMTXT
 40
0.18
  9
$DIMCEN
 40
0.09
  9
$DIMTSZ
 40
0.0
  9
$DIMTOL
 70
     0
  9
$DIMLIM
 70
     0
  9
$DIMTIH
 70
     1
  9
$DIMTOH
 70
     1
  9
$DIMSE1
 70
     0
  9
$DIMSE2
 70
     0
  9
$DIMTAD
 70
     0
  9
$DIMZIN
 70
     0
  9
$DIMBLK
  1

  9
$DIMASO
 70
     1
  9
$DIMSHO
 70
     1
  9
$DIMPOST
  1

  9
$DIMAPOST
  1

  9
$DIMALT
 70
     0
  9
$DIMALTD
 70
     2
  9
$DIMALTF
 40
25.4
  9
$DIMLFAC
 40
1.0
  9
$DIMTOFL
 70
     0
  9
$DIMTVP
 40
0.0
  9
$DIMTIX
 70
     0
  9
$DIMSOXD
 70
     0
  9
$DIMSAH
 70
     0
  9
$DIMBLK1
  1

  9
$DIMBLK2
  1

  9
$DIMSTYLE
  2
STANDARD
  9
$DIMCLRD
 70
     0
  9
$DIMCLRE
 70
     0
  9
$DIMCLRT
 70
     0
  9
$DIMTFAC
 40
1.0
  9
$DIMGAP
 40
0.09
  9
$LUNITS
 70
     2
  9
$LUPREC
 70
     4
  9
$SKETCHINC
 40
0.1
  9
$FILLETRAD
 40
0.5
  9
$AUNITS
 70
     0
  9
$AUPREC
 70
     0
  9
$MENU
  1
.
  9
$ELEVATION
 40
0.0
  9
$PELEVATION
 40
0.0
  9
$THICKNESS
 40
0.0
  9
$LIMCHECK
 70
     0
  9
$CHAMFERA
 40
0.0
  9
$CHAMFERB
 40
0.0
  9
$SKPOLY
 70
     0
  9
$TDCREATE
 40
2454910.5
  9
$TDUPDATE
 40
2457431.634188704
  9
$TDINDWG
 40
0.0000000116
  9
$TDUSRTIMER
 40
0.0000000116
  9
$USRTIMER
 70
     1
  9
$ANGBASE
 50
0.0
  9
$ANGDIR
 70
     0
  9
$PDMODE
 70
     0
  9
$PDSIZE
 40
0.0
  9
$PLINEWID
 40
0.0
  9
$COORDS
 70
     1
  9
$SPLFRAME
 70
     0
  9
$SPLINETYPE
 70
     6
  9
$SPLINESEGS
 70
     8
  9
$ATTDIA
 70
     0
  9
$ATTREQ
 70
     1
  9
$HANDLING
 70
     1
  9
$HANDSEED
  5
493
  9
$SURFTAB1
 70
     6
  9
$SURFTAB2
 70
     6
  9
$SURFTYPE
 70
     6
  9
$SURFU
 70
     6
  9
$SURFV
 70
     6
  9
$UCSNAME
  2

  9
$UCSORG
 10
0.0
 20
0.0
 30
0.0
  9
$UCSXDIR
 10
1.0
 20
0.0
 30
0.0
  9
$UCSYDIR
 10
0.0
 20
1.0
 30
0.0
  9
$PUCSNAME
  2

  9
$PUCSORG
 10
0.0
 20
0.0
 30
0.0
  9
$PUCSXDIR
 10
1.0
 20
0.0
 30
0.0
  9
$PUCSYDIR
 10
0.0
 20
1.0
 30
0.0
  9
$USERI1
 70
     0
  9
$USERI2
 70
     0
  9
$USERI3
 70
     0
  9
$USERI4
 70
     0
  9
$USERI5
 70
     0
  9
$USERR1
 40
0.0
  9
$USERR2
 40
0.0
  9
$USERR3
 40
0.0
  9
$USERR4
 40
0.0
  9
$USERR5
 40
0.0
  9
$WORLDVIEW
 70
     1
  9
$SHADEDGE
 70
     3
  9
$SHADEDIF
 70
    70
  9
$TILEMODE
 70
     1
  9
$MAXACTVP
 70
    64
  9
$PLIMCHECK
 70
     0
  9
$PEXTMIN
 10
1.000000000000000E+20
 20
1.000000000000000E+20
 30
1.000000000000000E+20
  9
$PEXTMAX
 10
-1.000000000000000E+20
 20
-1.000000000000000E+20
 30
-1.000000000000000E+20
  9
$PLIMMIN
 10
0.0
 20
0.0
  9
$PLIMMAX
 10
12.0
 20
9.0
  9
$UNITMODE
 70
     0
  9
$VISRETAIN
 70
     1
  9
$PLINEGEN
 70
     0
  9
$PSLTSCALE
 70
     1
  0
ENDSEC
  0
SECTION
  2
TABLES
  0
TABLE
  2
VPORT
 70
     1
  0
VPORT
  2
*ACTIVE
 70
     0
 10
0.0
 20
0.0
 11
1.0
 21
1.0
 12
10.42990654205607
 22
4.5
 13
0.0
 23
0.0
 14
0.5
 24
0.5
 15
0.5
 25
0.5
 16
0.0
 26
0.0
 36
1.0
 17
0.0
 27
0.0
 37
0.0
 40
9.0
 41
1.972972972850329
 42
50.0
 43
0.0
 44
0.0
 50
0.0
 51
0.0
 71
     0
 72
   100
 73
     1
 74
     3
 75
     0
 76
     0
 77
     0
 78
     0
  0
ENDTAB
  0
TABLE
  2
LTYPE
 70
     2
  0
LTYPE
  2
CONTINUOUS
 70
     0
  3
Solid line
 72
    65
 73
     0
 40
0.0
  0
LTYPE
  2
CONTINUOUS2
 70
     0
  3
Solid Line
 72
    65
 73
     0
 40
0.0
  0
ENDTAB
  0
TABLE
  2
LAYER
 70
     2
  0
LAYER
  2
0
 70
     0
 62
     7
  6
CONTINUOUS
  0
LAYER
  2
SLOTS
 70
     0
 62
    30
  6
CONTINUOUS
  0
ENDTAB
  0
TABLE
  2
STYLE
 70
     1
  0
STYLE
  2
STANDARD
 70
     0
 40
0.0
 41
1.0
 50
0.0
 71
     0
 42
0.2
  3
txt
  4

  0
ENDTAB
  0
TABLE
  2
VIEW
 70
     0
  0
ENDTAB
  0
TABLE
  2
UCS
 70
     0
  0
ENDTAB
  0
TABLE
  2
APPID
 70
     1
  0
APPID
  2
ACAD
 70
     0
  0
ENDTAB
  0
TABLE
  2
DIMSTYLE
 70
     1
  0
DIMSTYLE
  2
STANDARD
 70
     0
  3

  4

  5

  6

  7

 40
1.0
 41
0.18
 42
0.0625
 43
0.38
 44
0.18
 45
0.0
 46
0.0
 47
0.0
 48
0.0
140
0.18
141
0.09
142
0.0
143
25.4
144
1.0
145
0.0
146
1.0
147
0.09
 71
     0
 72
     0
 73
     1
 74
     1
 75
     0
 76
     0
 77
     0
 78
     0
170
     0
171
     2
172
     0
173
     0
174
     0
175
     0
176
     0
177
     0
178
     0
  0
ENDTAB
  0
ENDSEC
  0
SECTION
  2
BLOCKS
  0
BLOCK
  8
0
  2
$MODEL_SPACE
 70
     0
 10
0.0
 20
0.0
 30
0.0
  3
$MODEL_SPACE
  1

  0
ENDBLK
  5
21
  8
0
  0
BLOCK
 67
     1
  8
0
  2
$PAPER_SPACE
 70
     0
 10
0.0
 20
0.0
 30
0.0
  3
$PAPER_SPACE
  1

  0
ENDBLK
  5
1D
 67
     1
  8
0
  0
ENDSEC
  0
SECTION
  2
ENTITIES
  0
POLYLINE
  5
6C
  8
SLOTS
 66
     1
 10
0.0
 20
0.0
 30
0.0
 70
     1
  0
VERTEX
  5
74
  8
SLOTS
 10
3.845786692174837
 20
14.62933011944763
 30
0.0
 42
0.1364336309708431
  0
VERTEX
  5
75
  8
SLOTS
 10
3.830701515705464
 20
14.63658992494818
 30
0.0
 42
0.0323010082190117
  0
VERTEX
  5
76
  8
SLOTS
 10
3.761650891924127
 20
14.64440969278736
 30
0.0
 42
0.1548138514226756
  0
VERTEX
  5
77
  8
SLOTS
 10
3.655284876660607
 20
14.61622766062195
 30
0.0
 42
0.0906130335427873
  0
VERTEX
  5
78
  8
SLOTS
 10
3.519457585867654
 20
14.49046969972069
 30
0.0
 42
0.0276287033307137
  0
VERTEX
  5
79
  8
SLOTS
 10
3.45600096504891
 20
14.39526294674921
 30
0.0
 42
0.0252263432987646
  0
VERTEX
  5
7A
  8
SLOTS
 10
3.397896055216325
 20
14.28425388894978
 30
0.0
 42
-0.031334699659943
  0
VERTEX
  5
7B
  8
SLOTS
 10
3.390870822162626
 20
14.27122192341492
 30
0.0
 42
-0.2597958654394247
  0
VERTEX
  5
7C
  8
SLOTS
 10
3.376834017677226
 20
14.26345532105627
 30
0.0
 42
0.0212193365838238
  0
VERTEX
  5
7D
  8
SLOTS
 10
3.306416127169857
 20
14.26067561179704
 30
0.0
 42
0.0144284571350088
  0
VERTEX
  5
7E
  8
SLOTS
 10
3.05521868112332
 20
14.2327434264941
 30
0.0
 42
0.0343050180638302
  0
VERTEX
  5
7F
  8
SLOTS
 10
2.827911453252445
 20
14.1847271099364
 30
0.0
 42
0.0799844626599749
  0
VERTEX
  5
80
  8
SLOTS
 10
2.480186407935719
 20
14.02255520330745
 30
0.0
 42
0.0459715699798456
  0
VERTEX
  5
81
  8
SLOTS
 10
2.243934548775061
 20
13.82840103306061
 30
0.0
 42
0.1270048533865095
  0
VERTEX
  5
82
  8
SLOTS
 10
2.004654066380558
 20
13.42773377410403
 30
0.0
 42
0.1224816388381472
  0
VERTEX
  5
83
  8
SLOTS
 10
1.982879964915777
 20
12.90905805513441
 30
0.0
 42
0.0762844628490714
  0
VERTEX
  5
84
  8
SLOTS
 10
2.133460495916449
 20
12.50169286531127
 30
0.0
 42
0.0532591262162955
  0
VERTEX
  5
85
  8
SLOTS
 10
2.326449185301887
 20
12.22718459075352
 30
0.0
 42
0.0638457869773666
  0
VERTEX
  5
86
  8
SLOTS
 10
2.536393254667435
 20
12.04152069474863
 30
0.0
 42
0.0067514190183335
  0
VERTEX
  5
87
  8
SLOTS
 10
2.752311411960952
 20
11.89910564283991
 30
0.0
 42
0.0753568978564991
  0
VERTEX
  5
88
  8
SLOTS
 10
2.994196809132944
 20
11.79133350670284
 30
0.0
 42
0.0875352067541947
  0
VERTEX
  5
89
  8
SLOTS
 10
3.238461248829852
 20
11.76828193761844
 30
0.0
 42
0.141777566290105
  0
VERTEX
  5
8A
  8
SLOTS
 10
3.381862955596036
 20
11.82262093895455
 30
0.0
 42
0.15794689884774
  0
VERTEX
  5
8B
  8
SLOTS
 10
3.467662433767831
 20
11.94444419113583
 30
0.0
 42
0.0656989583384063
  0
VERTEX
  5
8C
  8
SLOTS
 10
3.494893764697081
 20
12.10395503932908
 30
0.0
 42
0.0648345706080773
  0
VERTEX
  5
8D
  8
SLOTS
 10
3.45622129094027
 20
12.5249177451554
 30
0.0
 42
0.0862430718061344
  0
VERTEX
  5
8E
  8
SLOTS
 10
3.380500041650536
 20
12.70748803016199
 30
0.0
 42
0.0588167627464641
  0
VERTEX
  5
8F
  8
SLOTS
 10
3.317583547890925
 20
12.78486046967497
 30
0.0
 42
0.1225301701879661
  0
VERTEX
  5
90
  8
SLOTS
 10
3.167444726023252
 20
12.87217249438699
 30
0.0
 42
0.0403954762351766
  0
VERTEX
  5
91
  8
SLOTS
 10
3.030123416288304
 20
12.9003156839185
 30
0.0
 42
0.0520186616430913
  0
VERTEX
  5
92
  8
SLOTS
 10
2.708513224911337
 20
12.90592971725068
 30
0.0
 42
0.042698719218817
  0
VERTEX
  5
93
  8
SLOTS
 10
2.639057516025199
 20
12.89387592370317
 30
0.0
 42
0.0515330295517326
  0
VERTEX
  5
94
  8
SLOTS
 10
2.584350382552461
 20
12.87327428661039
 30
0.0
 42
0.0796921362317877
  0
VERTEX
  5
95
  8
SLOTS
 10
2.534472424430755
 20
12.97750745697071
 30
0.0
 42
0.0489489515956205
  0
VERTEX
  5
96
  8
SLOTS
 10
2.471359276477164
 20
13.05195523073344
 30
0.0
 42
0.0002984128571845
  0
VERTEX
  5
97
  8
SLOTS
 10
2.465279111545699
 20
13.05784146044854
 30
0.0
 42
-0.0000994709493412
  0
VERTEX
  5
98
  8
SLOTS
 10
2.45919660506014
 20
13.06372527049865
 30
0.0
 42
-0.0464835249895191
  0
VERTEX
  5
99
  8
SLOTS
 10
2.57512724749192
 20
13.15928743685035
 30
0.0
 42
-0.0536732426835733
  0
VERTEX
  5
9A
  8
SLOTS
 10
2.69006068068827
 20
13.2204797655769
 30
0.0
 42
-0.0054797081618572
  0
VERTEX
  5
9B
  8
SLOTS
 10
2.895873806471828
 20
13.30055332353817
 30
0.0
 42
0.0268561302318154
  0
VERTEX
  5
9C
  8
SLOTS
 10
3.098077674552874
 20
13.38934754160691
 30
0.0
 42
0.0655536912683374
  0
VERTEX
  5
9D
  8
SLOTS
 10
3.418925904226075
 20
13.60809833266854
 30
0.0
 42
0.0510021379660846
  0
VERTEX
  5
9E
  8
SLOTS
 10
3.532980828158006
 20
13.73311942568239
 30
0.0
 42
0.0637000636993077
  0
VERTEX
  5
9F
  8
SLOTS
 10
3.552588937261678
 20
13.76813975415784
 30
0.0
 42
0.2387253022138816
  0
VERTEX
  5
A0
  8
SLOTS
 10
3.547966061405999
 20
13.82208311888912
 30
0.0
 42
0.0376064110579567
  0
VERTEX
  5
A1
  8
SLOTS
 10
3.541468402583842
 20
13.83100708404166
 30
0.0
 42
0.0277311366775297
  0
VERTEX
  5
A2
  8
SLOTS
 10
3.53116227099398
 20
13.84185111195047
 30
0.0
 42
0.0097095795718814
  0
VERTEX
  5
A3
  8
SLOTS
 10
3.647785617062498
 20
13.96613170695623
 30
0.0
 42
0.1756447243030824
  0
VERTEX
  5
A4
  8
SLOTS
 10
3.709536200665903
 20
14.11788075197726
 30
0.0
 42
0.1168886856473758
  0
VERTEX
  5
A5
  8
SLOTS
 10
3.670433344907254
 20
14.31690563690678
 30
0.0
 42
-0.0563069283938473
  0
VERTEX
  5
A6
  8
SLOTS
 10
3.654737915730656
 20
14.36520000484254
 30
0.0
 42
-0.0217262721726212
  0
VERTEX
  5
A7
  8
SLOTS
 10
3.654139672030974
 20
14.36894788372175
 30
0.0
 42
-0.0133202905161807
  0
VERTEX
  5
A8
  8
SLOTS
 10
3.653594532986383
 20
14.37511242941747
 30
0.0
 42
0.1334860170225185
  0
VERTEX
  5
A9
  8
SLOTS
 10
3.719648112134716
 20
14.43914020490175
 30
0.0
 42
0.0429490737238995
  0
VERTEX
  5
AA
  8
SLOTS
 10
3.747184959500337
 20
14.49618632936018
 30
0.0
 42
-0.1836848652098948
  0
VERTEX
  5
AB
  8
SLOTS
 10
3.75567019439226
 20
14.47289750562488
 30
0.0
 42
0.0806903021264062
  0
VERTEX
  5
AC
  8
SLOTS
 10
3.770143715968387
 20
14.3752234610671
 30
0.0
 42
0.0952063814375747
  0
VERTEX
  5
AD
  8
SLOTS
 10
3.853402012894335
 20
14.22208706875699
 30
0.0
 42
0.1206766687656615
  0
VERTEX
  5
AE
  8
SLOTS
 10
4.173809480608734
 20
13.98214214527609
 30
0.0
 42
0.1029427286290614
  0
VERTEX
  5
AF
  8
SLOTS
 10
4.39243370276823
 20
13.93841046277383
 30
0.0
 42
0.1253406308628608
  0
VERTEX
  5
B0
  8
SLOTS
 10
4.5016317901016
 20
13.9671227699547
 30
0.0
 42
0.1009868296290216
  0
VERTEX
  5
B1
  8
SLOTS
 10
4.542190804808861
 20
14.00182883380514
 30
0.0
 42
0.027680389630371
  0
VERTEX
  5
B2
  8
SLOTS
 10
4.584080921978797
 20
14.06223038138693
 30
0.0
 42
-0.0255918134776019
  0
VERTEX
  5
B3
  8
SLOTS
 10
4.596739968554074
 20
13.94854712780767
 30
0.0
 42
0.024359435807024
  0
VERTEX
  5
B4
  8
SLOTS
 10
4.64625586554612
 20
13.49369104113966
 30
0.0
 42
0.0402535892431821
  0
VERTEX
  5
B5
  8
SLOTS
 10
4.697332575061398
 20
13.28278836022145
 30
0.0
 42
0.0405923458619345
  0
VERTEX
  5
B6
  8
SLOTS
 10
4.780976709801765
 20
13.08451506728386
 30
0.0
 42
0.0023933083216606
  0
VERTEX
  5
B7
  8
SLOTS
 10
4.788614278254234
 20
13.07002687061496
 30
0.0
 42
-0.0007977680866534
  0
VERTEX
  5
B8
  8
SLOTS
 10
4.796298040615759
 20
13.05556311969916
 30
0.0
 42
0.0382020432692047
  0
VERTEX
  5
B9
  8
SLOTS
 10
4.726360728872296
 20
13.00928381131462
 30
0.0
 42
0.1351704019283268
  0
VERTEX
  5
BA
  8
SLOTS
 10
4.657115723354357
 20
12.91650216411496
 30
0.0
 42
0.0590230420597186
  0
VERTEX
  5
BB
  8
SLOTS
 10
4.619074082447403
 20
12.77028043197542
 30
0.0
 42
0.0057726625786458
  0
VERTEX
  5
BC
  8
SLOTS
 10
4.580284934910456
 20
12.46175287375949
 30
0.0
 42
0.0007427496997467
  0
VERTEX
  5
BD
  8
SLOTS
 10
4.500225248859563
 20
11.75015982200221
 30
0.0
 42
0.036825851210995
  0
VERTEX
  5
BE
  8
SLOTS
 10
4.490167122981264
 20
11.47794643741152
 30
0.0
 42
0.0153869348681429
  0
VERTEX
  5
BF
  8
SLOTS
 10
4.516161039489894
 20
11.09319206399456
 30
0.0
 42
-0.0153666874058851
  0
VERTEX
  5
C0
  8
SLOTS
 10
4.56446438437818
 20
10.37865018269978
 30
0.0
 42
-0.0110096473203051
  0
VERTEX
  5
C1
  8
SLOTS
 10
4.569944835691107
 20
10.00708042837042
 30
0.0
 42
0.0517308011626424
  0
VERTEX
  5
C2
  8
SLOTS
 10
4.589150891912508
 20
9.807839970359806
 30
0.0
 42
0.0346571098674093
  0
VERTEX
  5
C3
  8
SLOTS
 10
4.611473846496073
 20
9.726788980268907
 30
0.0
 42
0.0503393958184116
  0
VERTEX
  5
C4
  8
SLOTS
 10
4.636087981160123
 20
9.67431968107593
 30
0.0
 42
0.0437283126657556
  0
VERTEX
  5
C5
  8
SLOTS
 10
4.594764735285085
 20
9.65276277841139
 30
0.0
 42
-0.0425443978269848
  0
VERTEX
  5
C6
  8
SLOTS
 10
4.429676098522879
 20
9.566144798655163
 30
0.0
 42
-0.0159895819488447
  0
VERTEX
  5
C7
  8
SLOTS
 10
4.380259885343256
 20
9.547194990978355
 30
0.0
 42
-0.0270796166797795
  0
VERTEX
  5
C8
  8
SLOTS
 10
4.35021266220581
 20
9.538552951414042
 30
0.0
  0
VERTEX
  5
C9
  8
SLOTS
 10
4.351993865352102
 20
9.543545590764241
 30
0.0
 42
0.3135638771780951
  0
VERTEX
  5
CA
  8
SLOTS
 10
4.278895648828841
 20
9.547085831238547
 30
0.0
 42
0.0655260990398288
  0
VERTEX
  5
CB
  8
SLOTS
 10
4.193025743057198
 20
9.476188417377646
 30
0.0
 42
0.0588352804188927
  0
VERTEX
  5
CC
  8
SLOTS
 10
4.104068735655032
 20
9.35474799907257
 30
0.0
 42
0.1372076954487156
  0
VERTEX
  5
CD
  8
SLOTS
 10
4.044655259376514
 20
9.114017498029538
 30
0.0
 42
0.0240704747897297
  0
VERTEX
  5
CE
  8
SLOTS
 10
4.049117845449925
 20
9.05755685322093
 30
0.0
 42
0.0084845252034134
  0
VERTEX
  5
CF
  8
SLOTS
 10
4.072159902262954
 20
8.898622369516024
 30
0.0
 42
-0.0253660715006941
  0
VERTEX
  5
D0
  8
SLOTS
 10
3.917019859143654
 20
8.99265269427033
 30
0.0
 42
-0.0382809405446203
  0
VERTEX
  5
D1
  8
SLOTS
 10
3.82288033662836
 20
9.067563319211128
 30
0.0
 42
0.1562017823644069
  0
VERTEX
  5
D2
  8
SLOTS
 10
3.70478113299943
 20
9.122983821265196
 30
0.0
 42
0.0375233505458758
  0
VERTEX
  5
D3
  8
SLOTS
 10
3.604758183104477
 20
9.128375526411249
 30
0.0
 42
0.0115728199685736
  0
VERTEX
  5
D4
  8
SLOTS
 10
3.543644156251526
 20
9.260911536041142
 30
0.0
 42
0.0887870339167261
  0
VERTEX
  5
D5
  8
SLOTS
 10
3.448806434297221
 20
9.390354532059762
 30
0.0
 42
0.0353000020697311
  0
VERTEX
  5
D6
  8
SLOTS
 10
3.375526841332631
 20
9.450934072239143
 30
0.0
 42
0.0131506455540463
  0
VERTEX
  5
D7
  8
SLOTS
 10
3.164245147306574
 20
9.593606093547042
 30
0.0
 42
0.0429030181254395
  0
VERTEX
  5
D8
  8
SLOTS
 10
2.967179501779025
 20
9.696672306826773
 30
0.0
 42
0.1361021711703719
  0
VERTEX
  5
D9
  8
SLOTS
 10
2.649410231745711
 20
9.736790778565737
 30
0.0
 42
0.0116005314000939
  0
VERTEX
  5
DA
  8
SLOTS
 10
2.63836791823777
 20
9.73491624370461
 30
0.0
 42
0.0070520412636997
  0
VERTEX
  5
DB
  8
SLOTS
 10
2.6203326026678
 20
9.731157669839655
 30
0.0
 42
-0.1208266912628149
  0
VERTEX
  5
DC
  8
SLOTS
 10
2.61584795834585
 20
9.76427266838474
 30
0.0
 42
-0.0733746729333565
  0
VERTEX
  5
DD
  8
SLOTS
 10
2.647960580587296
 20
9.88880547231747
 30
0.0
 42
-0.1384342340897117
  0
VERTEX
  5
DE
  8
SLOTS
 10
2.7536726329474
 20
10.02115356953583
 30
0.0
 42
-0.0258051420769432
  0
VERTEX
  5
DF
  8
SLOTS
 10
2.87216134695858
 20
10.09711847701876
 30
0.0
 42
0.0002717662607989
  0
VERTEX
  5
E0
  8
SLOTS
 10
3.031172442296173
 20
10.18796138974047
 30
0.0
 42
0.0309858355949964
  0
VERTEX
  5
E1
  8
SLOTS
 10
3.16483777120463
 20
10.27582995576073
 30
0.0
 42
0.0514334066782175
  0
VERTEX
  5
E2
  8
SLOTS
 10
3.355044322054118
 20
10.45170581782825
 30
0.0
 42
0.1112474815873747
  0
VERTEX
  5
E3
  8
SLOTS
 10
3.41304026204243
 20
10.55782526611433
 30
0.0
 42
0.0954754052108961
  0
VERTEX
  5
E4
  8
SLOTS
 10
3.423585672479883
 20
10.67706864919431
 30
0.0
 42
0.10164842565019
  0
VERTEX
  5
E5
  8
SLOTS
 10
3.331178472000677
 20
10.97082728431914
 30
0.0
 42
0.0528037805365287
  0
VERTEX
  5
E6
  8
SLOTS
 10
3.272094793921005
 20
11.05484695104556
 30
0.0
 42
0.1346915644604504
  0
VERTEX
  5
E7
  8
SLOTS
 10
3.136716194522482
 20
11.1444425745676
 30
0.0
 42
0.0948389053338598
  0
VERTEX
  5
E8
  8
SLOTS
 10
2.953755589757916
 20
11.16794426820102
 30
0.0
 42
0.1012959712290243
  0
VERTEX
  5
E9
  8
SLOTS
 10
2.496491981406252
 20
11.04470336334865
 30
0.0
 42
0.0410086126788291
  0
VERTEX
  5
EA
  8
SLOTS
 10
2.394600930708149
 20
10.98263404696096
 30
0.0
 42
0.0970041572356899
  0
VERTEX
  5
EB
  8
SLOTS
 10
2.26153838046312
 20
10.83930902429905
 30
0.0
 42
0.1243484624246008
  0
VERTEX
  5
EC
  8
SLOTS
 10
2.167279463866479
 20
10.54245206000229
 30
0.0
 42
0.0518111808809228
  0
VERTEX
  5
ED
  8
SLOTS
 10
2.175609000400076
 20
10.35109905058889
 30
0.0
 42
0.0170157390053833
  0
VERTEX
  5
EE
  8
SLOTS
 10
2.257785958144515
 20
9.902204215335992
 30
0.0
 42
0.0247507806593856
  0
VERTEX
  5
EF
  8
SLOTS
 10
2.339855621502985
 20
9.59928758592249
 30
0.0
 42
-0.0220778988633535
  0
VERTEX
  5
F0
  8
SLOTS
 10
2.347595287562012
 20
9.571313722411244
 30
0.0
 42
-0.2223051377651527
  0
VERTEX
  5
F1
  8
SLOTS
 10
2.344569827266073
 20
9.557238094295249
 30
0.0
 42
0.0926986040722891
  0
VERTEX
  5
F2
  8
SLOTS
 10
2.300287664837223
 20
9.468828820962496
 30
0.0
 42
0.0915833288513171
  0
VERTEX
  5
F3
  8
SLOTS
 10
2.274400371640288
 20
9.20229730814035
 30
0.0
 42
0.064581412740898
  0
VERTEX
  5
F4
  8
SLOTS
 10
2.30406753753382
 20
9.06632445849266
 30
0.0
 42
0.0957459762577269
  0
VERTEX
  5
F5
  8
SLOTS
 10
2.393745316278741
 20
8.914909177251467
 30
0.0
 42
0.0635457060236576
  0
VERTEX
  5
F6
  8
SLOTS
 10
2.521697672687536
 20
8.803080943465725
 30
0.0
 42
0.1224238441130196
  0
VERTEX
  5
F7
  8
SLOTS
 10
2.811260200827221
 20
8.698137185079942
 30
0.0
 42
0.0396897136140423
  0
VERTEX
  5
F8
  8
SLOTS
 10
2.989157693886996
 20
8.69373782744759
 30
0.0
 42
0.050810643206466
  0
VERTEX
  5
F9
  8
SLOTS
 10
3.394051775509653
 20
8.757479741614791
 30
0.0
 42
0.0325931988630397
  0
VERTEX
  5
FA
  8
SLOTS
 10
3.558966618425329
 20
8.812651856342784
 30
0.0
 42
0.1397738374549761
  0
VERTEX
  5
FB
  8
SLOTS
 10
3.651002813593922
 20
8.884934262841439
 30
0.0
 42
0.0258573353572708
  0
VERTEX
  5
FC
  8
SLOTS
 10
3.65636375287369
 20
8.89319606966232
 30
0.0
 42
0.0215563373618243
  0
VERTEX
  5
FD
  8
SLOTS
 10
3.66182615909353
 20
8.903668424447849
 30
0.0
 42
-0.0694189997139631
  0
VERTEX
  5
FE
  8
SLOTS
 10
3.704903140948103
 20
8.873981764270393
 30
0.0
 42
-0.0132006242780201
  0
VERTEX
  5
FF
  8
SLOTS
 10
3.901798663139231
 20
8.683659290702172
 30
0.0
 42
0.1376993389407609
  0
VERTEX
  5
100
  8
SLOTS
 10
4.1566570653011
 20
8.537348737785269
 30
0.0
 42
0.1787625707683995
  0
VERTEX
  5
101
  8
SLOTS
 10
4.298981809910004
 20
8.552537823852207
 30
0.0
 42
0.2022007882936852
  0
VERTEX
  5
102
  8
SLOTS
 10
4.361027792223253
 20
8.624480825014892
 30
0.0
 42
0.055158726859225
  0
VERTEX
  5
103
  8
SLOTS
 10
4.375064458894554
 20
8.692868362517041
 30
0.0
 42
-0.0093872269648339
  0
VERTEX
  5
104
  8
SLOTS
 10
4.40148620792642
 20
8.929905695352712
 30
0.0
 42
-0.0121375678419859
  0
VERTEX
  5
105
  8
SLOTS
 10
4.429792924897896
 20
9.112192551897143
 30
0.0
 42
0.0230364730703408
  0
VERTEX
  5
106
  8
SLOTS
 10
4.436245912656132
 20
9.160695906633391
 30
0.0
 42
0.0533306156679496
  0
VERTEX
  5
107
  8
SLOTS
 10
4.435814626189399
 20
9.181876304707187
 30
0.0
 42
-0.0690964993537732
  0
VERTEX
  5
108
  8
SLOTS
 10
4.463775583959753
 20
9.162735581013488
 30
0.0
 42
0.1890186768540479
  0
VERTEX
  5
109
  8
SLOTS
 10
4.589702013953044
 20
9.11467013097166
 30
0.0
 42
0.069027055141647
  0
VERTEX
  5
10A
  8
SLOTS
 10
4.655086728344892
 20
9.124340677183673
 30
0.0
 42
0.0110801888093123
  0
VERTEX
  5
10B
  8
SLOTS
 10
5.045804865505295
 20
9.248135305221668
 30
0.0
 42
0.0956402943354451
  0
VERTEX
  5
10C
  8
SLOTS
 10
5.055626453664186
 20
9.253754764677815
 30
0.0
 42
0.138186822261142
  0
VERTEX
  5
10D
  8
SLOTS
 10
5.059998757926375
 20
9.26034507115469
 30
0.0
 42
-0.008507021914008
  0
VERTEX
  5
10E
  8
SLOTS
 10
5.258018588903054
 20
9.142665829446507
 30
0.0
 42
-0.0446752032040948
  0
VERTEX
  5
10F
  8
SLOTS
 10
5.481306842688974
 20
8.975545958678788
 30
0.0
 42
-0.0118825806381404
  0
VERTEX
  5
110
  8
SLOTS
 10
5.580477831523759
 20
8.882122790661079
 30
0.0
 42
-0.0715051382561588
  0
VERTEX
  5
111
  8
SLOTS
 10
5.594224430445393
 20
8.863991229409374
 30
0.0
 42
-0.2445550662132422
  0
VERTEX
  5
112
  8
SLOTS
 10
5.594495917947494
 20
8.853647252100723
 30
0.0
 42
0.0211535992112023
  0
VERTEX
  5
113
  8
SLOTS
 10
5.578268439681434
 20
8.816428614179262
 30
0.0
 42
-0.0335602630369756
  0
VERTEX
  5
114
  8
SLOTS
 10
5.421688976987208
 20
8.48030622285365
 30
0.0
 42
-0.0046107902425805
  0
VERTEX
  5
115
  8
SLOTS
 10
5.258292552263375
 20
8.189739388470732
 30
0.0
 42
0.0254896319904189
  0
VERTEX
  5
116
  8
SLOTS
 10
5.034035494805607
 20
7.748825477937294
 30
0.0
 42
0.0735907026807113
  0
VERTEX
  5
117
  8
SLOTS
 10
4.924436007484108
 20
7.356833045170907
 30
0.0
 42
0.0598323953817994
  0
VERTEX
  5
118
  8
SLOTS
 10
4.922660212411007
 20
7.070191254937757
 30
0.0
 42
0.1918744243534131
  0
VERTEX
  5
119
  8
SLOTS
 10
4.966321466337476
 20
6.988819101033204
 30
0.0
 42
0.030302704494968
  0
VERTEX
  5
11A
  8
SLOTS
 10
4.978341669729998
 20
6.979895653330185
 30
0.0
 42
0.0223700439906769
  0
VERTEX
  5
11B
  8
SLOTS
 10
4.995797584401207
 20
6.969590852906664
 30
0.0
 42
-0.0195885674457159
  0
VERTEX
  5
11C
  8
SLOTS
 10
4.960096443294439
 20
6.859568909601421
 30
0.0
 42
-0.0771170231034649
  0
VERTEX
  5
11D
  8
SLOTS
 10
4.885495029172532
 20
6.725215024196354
 30
0.0
 42
-0.0435161816579378
  0
VERTEX
  5
11E
  8
SLOTS
 10
4.796820447406687
 20
6.62960469859866
 30
0.0
 42
-0.0086517758347242
  0
VERTEX
  5
11F
  8
SLOTS
 10
4.639120937694366
 20
6.491643858835464
 30
0.0
  0
VERTEX
  5
120
  8
SLOTS
 10
4.624854542622168
 20
6.570112625282968
 30
0.0
 42
-0.038094872689467
  0
VERTEX
  5
121
  8
SLOTS
 10
4.570434267796708
 20
6.540542822046373
 30
0.0
 42
-0.0570502957636178
  0
VERTEX
  5
122
  8
SLOTS
 10
4.530947883673369
 20
6.527998610341872
 30
0.0
 42
-0.008227916861561
  0
VERTEX
  5
123
  8
SLOTS
 10
4.411567687866405
 20
6.506624079079995
 30
0.0
 42
0.2419415778922465
  0
VERTEX
  5
124
  8
SLOTS
 10
4.386646245807448
 20
6.488243740130276
 30
0.0
 42
0.1393169230516152
  0
VERTEX
  5
125
  8
SLOTS
 10
4.382499454641915
 20
6.465925926730151
 30
0.0
 42
0.0374874173757707
  0
VERTEX
  5
126
  8
SLOTS
 10
4.396362914560967
 20
6.384222948460894
 30
0.0
 42
0.0027501662164129
  0
VERTEX
  5
127
  8
SLOTS
 10
4.403554043179939
 20
6.355885357631118
 30
0.0
 42
-0.0009167200177714
  0
VERTEX
  5
128
  8
SLOTS
 10
4.410849033738105
 20
6.327574326254521
 30
0.0
 42
-0.0254560878591238
  0
VERTEX
  5
129
  8
SLOTS
 10
4.334001665797877
 20
6.281981909937056
 30
0.0
 42
-0.1120072172063756
  0
VERTEX
  5
12A
  8
SLOTS
 10
4.223609864970352
 20
6.252440087876359
 30
0.0
 42
-0.0615190169369589
  0
VERTEX
  5
12B
  8
SLOTS
 10
4.099834918882742
 20
6.26292228795374
 30
0.0
 42
-0.0598914972259694
  0
VERTEX
  5
12C
  8
SLOTS
 10
3.979026671573369
 20
6.303898829576479
 30
0.0
 42
-0.0041584796556807
  0
VERTEX
  5
12D
  8
SLOTS
 10
3.881225845722319
 20
6.35174249503716
 30
0.0
 42
0.0076162659456759
  0
VERTEX
  5
12E
  8
SLOTS
 10
3.78309650645789
 20
6.398908697315776
 30
0.0
  0
VERTEX
  5
12F
  8
SLOTS
 10
3.754563716313492
 20
6.348972721012683
 30
0.0
 42
-0.0147557670308142
  0
VERTEX
  5
130
  8
SLOTS
 10
3.641932887660604
 20
6.418220905971383
 30
0.0
 42
-0.013842433728197
  0
VERTEX
  5
131
  8
SLOTS
 10
3.526289416656973
 20
6.498778254221699
 30
0.0
  0
VERTEX
  5
132
  8
SLOTS
 10
3.497756626512575
 20
6.420309487774195
 30
0.0
 42
0.0415733449997421
  0
VERTEX
  5
133
  8
SLOTS
 10
3.38314632004588
 20
6.530045963450772
 30
0.0
 42
0.0127771466662677
  0
VERTEX
  5
134
  8
SLOTS
 10
3.219548746253238
 20
6.655715787116677
 30
0.0
  0
VERTEX
  5
135
  8
SLOTS
 10
3.212414350867001
 20
6.541579835138568
 30
0.0
 42
-0.0000736014045689
  0
VERTEX
  5
136
  8
SLOTS
 10
3.001912411114383
 20
6.752143756969484
 30
0.0
 42
0.080828270013806
  0
VERTEX
  5
137
  8
SLOTS
 10
2.916776904450609
 20
6.813488342737229
 30
0.0
 42
0.0542132666606601
  0
VERTEX
  5
138
  8
SLOTS
 10
2.858532501539105
 20
6.83506396588969
 30
0.0
 42
0.1058515506150401
  0
VERTEX
  5
139
  8
SLOTS
 10
2.826479016835756
 20
6.836203053606934
 30
0.0
 42
0.0980280014955065
  0
VERTEX
  5
13A
  8
SLOTS
 10
2.802393358618988
 20
6.871450696280923
 30
0.0
 42
-0.0052962098093681
  0
VERTEX
  5
13B
  8
SLOTS
 10
2.682191091966347
 20
6.991920317204747
 30
0.0
 42
0.0224838807300561
  0
VERTEX
  5
13C
  8
SLOTS
 10
2.532001927713613
 20
7.132437881834878
 30
0.0
 42
0.0154973018657817
  0
VERTEX
  5
13D
  8
SLOTS
 10
2.299324339341729
 20
7.319133104227281
 30
0.0
  0
VERTEX
  5
13E
  8
SLOTS
 10
2.249388363038638
 20
7.240664337779777
 30
0.0
 42
-0.0017377983599595
  0
VERTEX
  5
13F
  8
SLOTS
 10
2.153157990883147
 20
7.390729103064982
 30
0.0
 42
-0.0015987535668138
  0
VERTEX
  5
140
  8
SLOTS
 10
2.049649249226776
 20
7.554539403569764
 30
0.0
 42
0.0714056769656094
  0
VERTEX
  5
141
  8
SLOTS
 10
1.99896933337998
 20
7.345128009392964
 30
0.0
 42
0.1004519162631451
  0
VERTEX
  5
142
  8
SLOTS
 10
2.047992572924001
 20
6.881539159027984
 30
0.0
 42
0.0654456425068865
  0
VERTEX
  5
143
  8
SLOTS
 10
2.16203807530814
 20
6.636942509709042
 30
0.0
 42
0.0471568240968564
  0
VERTEX
  5
144
  8
SLOTS
 10
2.391572878799103
 20
6.341947047146322
 30
0.0
 42
0.073398123339828
  0
VERTEX
  5
145
  8
SLOTS
 10
2.583311977176581
 20
6.190422083041812
 30
0.0
 42
-0.0685545031293579
  0
VERTEX
  5
146
  8
SLOTS
 10
2.631610092802871
 20
6.153004274155247
 30
0.0
 42
-0.0362399013310671
  0
VERTEX
  5
147
  8
SLOTS
 10
2.660976537908748
 20
6.118302527611716
 30
0.0
 42
0.0520187396349404
  0
VERTEX
  5
148
  8
SLOTS
 10
2.782743081070836
 20
5.9832768323581
 30
0.0
 42
0.0341705083701257
  0
VERTEX
  5
149
  8
SLOTS
 10
2.946912336170549
 20
5.854615981732402
 30
0.0
 42
0.0316699574794136
  0
VERTEX
  5
14A
  8
SLOTS
 10
3.27225386454088
 20
5.662637901349994
 30
0.0
 42
0.0342151924785426
  0
VERTEX
  5
14B
  8
SLOTS
 10
3.406076791091377
 20
5.605841884080086
 30
0.0
 42
0.0906085892515071
  0
VERTEX
  5
14C
  8
SLOTS
 10
3.629743772470984
 20
5.57152417759905
 30
0.0
 42
0.0497113599066549
  0
VERTEX
  5
14D
  8
SLOTS
 10
3.783999270494545
 20
5.591349160572429
 30
0.0
 42
0.0515806401953084
  0
VERTEX
  5
14E
  8
SLOTS
 10
4.172242227190262
 20
5.724432080997927
 30
0.0
 42
0.0274797986193282
  0
VERTEX
  5
14F
  8
SLOTS
 10
4.329627007682377
 20
5.80802506539449
 30
0.0
 42
0.0293808194979698
  0
VERTEX
  5
150
  8
SLOTS
 10
4.467023413528708
 20
5.902414191800593
 30
0.0
  0
VERTEX
  5
151
  8
SLOTS
 10
4.465241012532279
 20
5.906695308172378
 30
0.0
 42
0.0477483467783881
  0
VERTEX
  5
152
  8
SLOTS
 10
4.519849598805954
 20
5.900928062973438
 30
0.0
 42
0.0446498037430805
  0
VERTEX
  5
153
  8
SLOTS
 10
4.675047620390477
 20
5.913283618895948
 30
0.0
 42
0.0779297991872736
  0
VERTEX
  5
154
  8
SLOTS
 10
4.84177810972228
 20
5.969320081041245
 30
0.0
 42
0.0869186929808574
  0
VERTEX
  5
155
  8
SLOTS
 10
4.967204901750214
 20
6.06530024845111
 30
0.0
 42
0.0314467909646011
  0
VERTEX
  5
156
  8
SLOTS
 10
5.14865886851917
 20
6.289071850069441
 30
0.0
 42
0.0764346632013893
  0
VERTEX
  5
157
  8
SLOTS
 10
5.266534781260532
 20
6.523502130978951
 30
0.0
 42
0.0550390840123838
  0
VERTEX
  5
158
  8
SLOTS
 10
5.304714110213712
 20
6.708649404576984
 30
0.0
 42
0.0150253463567802
  0
VERTEX
  5
159
  8
SLOTS
 10
5.321265443768755
 20
6.969590852906664
 30
0.0
 42
0.0167359819255688
  0
VERTEX
  5
15A
  8
SLOTS
 10
5.463912012101048
 20
7.036382664188542
 30
0.0
 42
0.0831552430201518
  0
VERTEX
  5
15B
  8
SLOTS
 10
5.543257882555768
 20
7.095128052986114
 30
0.0
 42
0.1048141617408895
  0
VERTEX
  5
15C
  8
SLOTS
 10
5.580520443800907
 20
7.154735879602848
 30
0.0
 42
0.0343509670499665
  0
VERTEX
  5
15D
  8
SLOTS
 10
5.63945699404028
 20
7.358808994213215
 30
0.0
 42
0.0199143567395646
  0
VERTEX
  5
15E
  8
SLOTS
 10
5.776872174618873
 20
8.14678941030881
 30
0.0
 42
0.0379700163154794
  0
VERTEX
  5
15F
  8
SLOTS
 10
5.800765383445845
 20
8.566061263059566
 30
0.0
 42
0.0011704635616104
  0
VERTEX
  5
160
  8
SLOTS
 10
5.799989537377523
 20
8.602448539906183
 30
0.0
 42
-0.0011203199601173
  0
VERTEX
  5
161
  8
SLOTS
 10
5.799210042139681
 20
8.638835738762486
 30
0.0
 42
-0.0049557494256985
  0
VERTEX
  5
162
  8
SLOTS
 10
6.068644255965847
 20
8.336369569695137
 30
0.0
 42
-0.0474593719105895
  0
VERTEX
  5
163
  8
SLOTS
 10
6.31706461064759
 20
7.990555730180314
 30
0.0
 42
-0.0245888508251693
  0
VERTEX
  5
164
  8
SLOTS
 10
6.471320714995043
 20
7.693481572298008
 30
0.0
 42
-0.0186208226337796
  0
VERTEX
  5
165
  8
SLOTS
 10
6.56428650425342
 20
7.468931450335504
 30
0.0
 42
-0.1314517924593093
  0
VERTEX
  5
166
  8
SLOTS
 10
6.567468031825171
 20
7.435142631612852
 30
0.0
 42
-0.0365758284901502
  0
VERTEX
  5
167
  8
SLOTS
 10
6.507694444507306
 20
7.191563216122244
 30
0.0
 42
-0.0173763728712299
  0
VERTEX
  5
168
  8
SLOTS
 10
6.476513549839555
 20
7.105745966803391
 30
0.0
 42
0.0439949757653196
  0
VERTEX
  5
169
  8
SLOTS
 10
6.370244199810308
 20
6.756430983119627
 30
0.0
 42
-0.001882046429784
  0
VERTEX
  5
16A
  8
SLOTS
 10
6.318250689934873
 20
6.513869553409677
 30
0.0
 42
-0.0490636296623668
  0
VERTEX
  5
16B
  8
SLOTS
 10
6.24733436028807
 20
6.294724607494832
 30
0.0
 42
-0.0273851841297816
  0
VERTEX
  5
16C
  8
SLOTS
 10
6.127872422710239
 20
6.057065871004343
 30
0.0
 42
0.0273097404770131
  0
VERTEX
  5
16D
  8
SLOTS
 10
6.008374653602865
 20
5.819425149034247
 30
0.0
 42
0.0504368030905897
  0
VERTEX
  5
16E
  8
SLOTS
 10
5.974722808189814
 20
5.714562472488964
 30
0.0
 42
0.1861554111902327
  0
VERTEX
  5
16F
  8
SLOTS
 10
5.998305192218657
 20
5.566887675193325
 30
0.0
 42
0.0169969428081911
  0
VERTEX
  5
170
  8
SLOTS
 10
6.019653587716938
 20
5.53286989897887
 30
0.0
 42
0.0053901693759481
  0
VERTEX
  5
171
  8
SLOTS
 10
6.091686713171494
 20
5.428748314101175
 30
0.0
 42
0.0085748159876025
  0
VERTEX
  5
172
  8
SLOTS
 10
5.980163589406494
 20
5.441416747031516
 30
0.0
 42
0.2674368586265449
  0
VERTEX
  5
173
  8
SLOTS
 10
5.938700659554449
 20
5.422567233039528
 30
0.0
 42
0.0992372406804055
  0
VERTEX
  5
174
  8
SLOTS
 10
5.917512731480784
 20
5.375582295336016
 30
0.0
 42
0.032490366180436
  0
VERTEX
  5
175
  8
SLOTS
 10
5.892517776022474
 20
5.2215418025664
 30
0.0
 42
0.0164718481709101
  0
VERTEX
  5
176
  8
SLOTS
 10
5.860124549786671
 20
4.70773047666394
 30
0.0
 42
0.0356115094151865
  0
VERTEX
  5
177
  8
SLOTS
 10
5.866597299234335
 20
4.550606896308551
 30
0.0
 42
-0.0043739027817479
  0
VERTEX
  5
178
  8
SLOTS
 10
5.897566340252266
 20
4.252797904430912
 30
0.0
 42
0.0525628942101292
  0
VERTEX
  5
179
  8
SLOTS
 10
5.939342450710376
 20
4.046602464206057
 30
0.0
 42
0.0068501615795606
  0
VERTEX
  5
17A
  8
SLOTS
 10
5.9491049327745
 20
4.017007276264388
 30
0.0
 42
0.0033308826693578
  0
VERTEX
  5
17B
  8
SLOTS
 10
5.970416365807131
 20
3.956566544862304
 30
0.0
 42
0.0502674007835416
  0
VERTEX
  5
17C
  8
SLOTS
 10
5.939927591216159
 20
3.94260274051808
 30
0.0
 42
0.1541110277082574
  0
VERTEX
  5
17D
  8
SLOTS
 10
5.921940570504082
 20
3.922706552831174
 30
0.0
 42
0.0784980998649838
  0
VERTEX
  5
17E
  8
SLOTS
 10
5.908184519680804
 20
3.873491543555934
 30
0.0
 42
0.0336000319223026
  0
VERTEX
  5
17F
  8
SLOTS
 10
5.895348805436807
 20
3.610153879351916
 30
0.0
 42
0.0499050574143502
  0
VERTEX
  5
180
  8
SLOTS
 10
5.910436380914788
 20
3.483102577510222
 30
0.0
 42
0.0856593728571444
  0
VERTEX
  5
181
  8
SLOTS
 10
5.96580393166002
 20
3.34795582643832
 30
0.0
 42
0.0307910151045655
  0
VERTEX
  5
182
  8
SLOTS
 10
6.012328124863831
 20
3.282965228338193
 30
0.0
 42
-0.0152441578980568
  0
VERTEX
  5
183
  8
SLOTS
 10
6.206393753007134
 20
3.028935219694438
 30
0.0
 42
0.0311846522974297
  0
VERTEX
  5
184
  8
SLOTS
 10
6.328425909162489
 20
2.879327978553887
 30
0.0
 42
0.0333487639963151
  0
VERTEX
  5
185
  8
SLOTS
 10
6.459608776917618
 20
2.755257021674363
 30
0.0
 42
0.0007431685171522
  0
VERTEX
  5
186
  8
SLOTS
 10
6.843147075477957
 20
2.439105943881285
 30
0.0
 42
0.0088537653543626
  0
VERTEX
  5
187
  8
SLOTS
 10
7.024872263631343
 20
2.295076990633246
 30
0.0
 42
0.0033987745995523
  0
VERTEX
  5
188
  8
SLOTS
 10
7.159448257954802
 20
2.193684789838637
 30
0.0
 42
0.0629274999695888
  0
VERTEX
  5
189
  8
SLOTS
 10
7.300020931115146
 20
2.114462729176651
 30
0.0
 42
0.0181164769065038
  0
VERTEX
  5
18A
  8
SLOTS
 10
7.416726346323491
 20
2.071692421173038
 30
0.0
 42
-0.0196534991019772
  0
VERTEX
  5
18B
  8
SLOTS
 10
7.883019639861353
 20
1.899177643467008
 30
0.0
 42
-0.0095891292295157
  0
VERTEX
  5
18C
  8
SLOTS
 10
8.152191952370586
 20
1.781279024834343
 30
0.0
 42
0.0958581645256008
  0
VERTEX
  5
18D
  8
SLOTS
 10
8.343808981415158
 20
1.734208591547184
 30
0.0
 42
0.0390142200823894
  0
VERTEX
  5
18E
  8
SLOTS
 10
8.405815580616654
 20
1.735960264539076
 30
0.0
 42
0.1343650322521623
  0
VERTEX
  5
18F
  8
SLOTS
 10
8.486371070576904
 20
1.767516685237549
 30
0.0
 42
0.0185248783127748
  0
VERTEX
  5
190
  8
SLOTS
 10
8.494172212517341
 20
1.773793451103904
 30
0.0
 42
0.0087406730347891
  0
VERTEX
  5
191
  8
SLOTS
 10
8.509952077971631
 20
1.787973874476859
 30
0.0
 42
0.0398527636181429
  0
VERTEX
  5
192
  8
SLOTS
 10
8.40703814681477
 20
1.902301498218795
 30
0.0
 42
0.0329454032947446
  0
VERTEX
  5
193
  8
SLOTS
 10
8.263879544510763
 20
2.021024256822503
 30
0.0
 42
-0.0270918334751203
  0
VERTEX
  5
194
  8
SLOTS
 10
8.184243711735864
 20
2.085509940104253
 30
0.0
 42
-0.0344933110966875
  0
VERTEX
  5
195
  8
SLOTS
 10
8.128364605345858
 20
2.143483452913677
 30
0.0
 42
-0.0017634483699765
  0
VERTEX
  5
196
  8
SLOTS
 10
8.032527882255604
 20
2.258538975045764
 30
0.0
 42
0.0650048111513815
  0
VERTEX
  5
197
  8
SLOTS
 10
7.944116543946759
 20
2.340899025865355
 30
0.0
 42
0.0492628993779656
  0
VERTEX
  5
198
  8
SLOTS
 10
7.828463239150373
 20
2.407379750284745
 30
0.0
 42
0.0890227465081262
  0
VERTEX
  5
199
  8
SLOTS
 10
7.685832096086619
 20
2.443144021175567
 30
0.0
 42
0.0470883502182947
  0
VERTEX
  5
19A
  8
SLOTS
 10
7.516844934786936
 20
2.438748795924386
 30
0.0
 42
-0.0560991101219923
  0
VERTEX
  5
19B
  8
SLOTS
 10
7.425822539906524
 20
2.438017887867951
 30
0.0
 42
-0.0591086206144569
  0
VERTEX
  5
19C
  8
SLOTS
 10
7.394694337237359
 20
2.445048436143976
 30
0.0
 42
-0.0142700210348955
  0
VERTEX
  5
19D
  8
SLOTS
 10
7.271798671188288
 20
2.492538316018552
 30
0.0
 42
-0.0272855313455185
  0
VERTEX
  5
19E
  8
SLOTS
 10
7.20805386992939
 20
2.523475697805822
 30
0.0
 42
-0.0330673891925656
  0
VERTEX
  5
19F
  8
SLOTS
 10
7.158893179633216
 20
2.555160703691237
 30
0.0
 42
-0.2724005273913185
  0
VERTEX
  5
1A0
  8
SLOTS
 10
7.153951514346604
 20
2.566839812501828
 30
0.0
 42
0.0189343459981719
  0
VERTEX
  5
1A1
  8
SLOTS
 10
7.158585220107381
 20
2.616118802061286
 30
0.0
 42
0.0311182671918594
  0
VERTEX
  5
1A2
  8
SLOTS
 10
7.157107549759307
 20
2.849693568494641
 30
0.0
 42
0.0242628193866786
  0
VERTEX
  5
1A3
  8
SLOTS
 10
7.122132700966127
 20
3.147107740097869
 30
0.0
 42
0.0491049089409137
  0
VERTEX
  5
1A4
  8
SLOTS
 10
7.062426038882196
 20
3.368248710395349
 30
0.0
 42
0.0483037837059569
  0
VERTEX
  5
1A5
  8
SLOTS
 10
6.959397370295821
 20
3.577054083238891
 30
0.0
 42
-0.0113130658183072
  0
VERTEX
  5
1A6
  8
SLOTS
 10
6.852532989863053
 20
3.758493959363016
 30
0.0
 42
0.0792160193553687
  0
VERTEX
  5
1A7
  8
SLOTS
 10
6.782257998786296
 20
3.847607093015945
 30
0.0
 42
0.0208661942737922
  0
VERTEX
  5
1A8
  8
SLOTS
 10
6.702729608012865
 20
3.915031138840149
 30
0.0
 42
-0.0370804048707273
  0
VERTEX
  5
1A9
  8
SLOTS
 10
6.625427149383924
 20
3.984996107104538
 30
0.0
 42
0.0162523354083101
  0
VERTEX
  5
1AA
  8
SLOTS
 10
6.565764182723563
 20
4.043693462683212
 30
0.0
 42
0.0819246358554577
  0
VERTEX
  5
1AB
  8
SLOTS
 10
6.551797718777116
 20
4.052868904075109
 30
0.0
 42
0.0059267109394164
  0
VERTEX
  5
1AC
  8
SLOTS
 10
6.681530337762186
 20
4.198650151007101
 30
0.0
 42
0.1957728705251472
  0
VERTEX
  5
1AD
  8
SLOTS
 10
6.739183229297572
 20
4.367681060271723
 30
0.0
 42
0.1073188754330599
  0
VERTEX
  5
1AE
  8
SLOTS
 10
6.714937880757407
 20
4.454686710662365
 30
0.0
 42
0.0393235172675466
  0
VERTEX
  5
1AF
  8
SLOTS
 10
6.521817147967375
 20
4.759866637337844
 30
0.0
 42
0.032370562354635
  0
VERTEX
  5
1B0
  8
SLOTS
 10
6.426469919249809
 20
4.871354343751837
 30
0.0
 42
-0.1254222153978166
  0
VERTEX
  5
1B1
  8
SLOTS
 10
6.38696824280678
 20
4.939915872082519
 30
0.0
 42
-0.0482834462971016
  0
VERTEX
  5
1B2
  8
SLOTS
 10
6.377463746984993
 20
4.993154775048893
 30
0.0
 42
0.1022678472916505
  0
VERTEX
  5
1B3
  8
SLOTS
 10
6.316920610239583
 20
5.200572854790813
 30
0.0
 42
0.0185796475634
  0
VERTEX
  5
1B4
  8
SLOTS
 10
6.298426984627954
 20
5.232502715262714
 30
0.0
 42
0.0087988859265308
  0
VERTEX
  5
1B5
  8
SLOTS
 10
6.255756245752447
 20
5.297669969855943
 30
0.0
 42
-0.0093955380091778
  0
VERTEX
  5
1B6
  8
SLOTS
 10
6.355357945266494
 20
5.254923173875807
 30
0.0
 42
-0.0075828720419601
  0
VERTEX
  5
1B7
  8
SLOTS
 10
6.476896150022731
 20
5.197800412950021
 30
0.0
 42
0.0132352631184649
  0
VERTEX
  5
1B8
  8
SLOTS
 10
6.524855550984198
 20
5.340880502439632
 30
0.0
 42
0.0332583288380895
  0
VERTEX
  5
1B9
  8
SLOTS
 10
6.555589156159867
 20
5.471867670750757
 30
0.0
 42
0.009391684425298
  0
VERTEX
  5
1BA
  8
SLOTS
 10
6.585155927035919
 20
5.674080952483421
 30
0.0
 42
-0.0088835318314883
  0
VERTEX
  5
1BB
  8
SLOTS
 10
6.639683982962452
 20
6.049675491329219
 30
0.0
 42
0.0380150634819281
  0
VERTEX
  5
1BC
  8
SLOTS
 10
6.666210713412521
 20
6.357567259059625
 30
0.0
 42
0.0147953434492699
  0
VERTEX
  5
1BD
  8
SLOTS
 10
6.662368868762395
 20
6.553172628716116
 30
0.0
 42
-0.0107671798563353
  0
VERTEX
  5
1BE
  8
SLOTS
 10
6.732730688555799
 20
6.334607161480212
 30
0.0
 42
-0.0449001761427725
  0
VERTEX
  5
1BF
  8
SLOTS
 10
6.792194261769541
 20
6.041527714731306
 30
0.0
 42
0.0328239935477933
  0
VERTEX
  5
1C0
  8
SLOTS
 10
6.822002043341896
 20
5.873975442466634
 30
0.0
 42
0.0164845288914284
  0
VERTEX
  5
1C1
  8
SLOTS
 10
6.913832600862637
 20
5.548070199403242
 30
0.0
 42
0.0056489955357261
  0
VERTEX
  5
1C2
  8
SLOTS
 10
6.949330307610166
 20
5.440561481178167
 30
0.0
 42
0.0366187183966728
  0
VERTEX
  5
1C3
  8
SLOTS
 10
7.000160683129827
 20
5.321472331881622
 30
0.0
 42
0.0180694908700951
  0
VERTEX
  5
1C4
  8
SLOTS
 10
7.042831670052223
 20
5.245677876094663
 30
0.0
 42
0.01451601597759
  0
VERTEX
  5
1C5
  8
SLOTS
 10
7.101972680108051
 20
5.154998832033148
 30
0.0
 42
0.0315648394965486
  0
VERTEX
  5
1C6
  8
SLOTS
 10
7.126463300450598
 20
5.511569010982861
 30
0.0
 42
-0.0660193833509755
  0
VERTEX
  5
1C7
  8
SLOTS
 10
7.152813034768636
 20
5.702254203988014
 30
0.0
 42
-0.0869994374640586
  0
VERTEX
  5
1C8
  8
SLOTS
 10
7.229239739349629
 20
5.863453630069872
 30
0.0
 42
-0.0540868677230125
  0
VERTEX
  5
1C9
  8
SLOTS
 10
7.526127074866338
 20
6.19899475281313
 30
0.0
 42
-0.1826776774799762
  0
VERTEX
  5
1CA
  8
SLOTS
 10
7.589059935808523
 20
6.223912476768759
 30
0.0
 42
-0.0136803557795206
  0
VERTEX
  5
1CB
  8
SLOTS
 10
7.736291448706405
 20
6.222185805357084
 30
0.0
 42
0.0694360474572304
  0
VERTEX
  5
1CC
  8
SLOTS
 10
7.771393733991794
 20
6.225692305662236
 30
0.0
 42
0.1220901404686407
  0
VERTEX
  5
1CD
  8
SLOTS
 10
7.789356961629816
 20
6.235071362187174
 30
0.0
 42
-0.019095919073988
  0
VERTEX
  5
1CE
  8
SLOTS
 10
7.845374845013754
 20
6.280927735222271
 30
0.0
 42
-0.0180535915761169
  0
VERTEX
  5
1CF
  8
SLOTS
 10
7.908061135041435
 20
6.324898329059597
 30
0.0
 42
0.0134291304948957
  0
VERTEX
  5
1D0
  8
SLOTS
 10
7.901193967162794
 20
5.645193213515557
 30
0.0
 42
0.0264487340220923
  0
VERTEX
  5
1D1
  8
SLOTS
 10
7.925221675837365
 20
5.30071864519008
 30
0.0
 42
0.0332672388093585
  0
VERTEX
  5
1D2
  8
SLOTS
 10
7.986450971172671
 20
4.980679853201687
 30
0.0
 42
0.004847763824772
  0
VERTEX
  5
1D3
  8
SLOTS
 10
8.141663720067836
 20
4.40928779343506
 30
0.0
 42
0.0230594710956425
  0
VERTEX
  5
1D4
  8
SLOTS
 10
8.17559824444535
 20
4.307244518343909
 30
0.0
 42
0.0573955811417081
  0
VERTEX
  5
1D5
  8
SLOTS
 10
8.25544768271242
 20
4.154547892038659
 30
0.0
 42
0.0225212178366308
  0
VERTEX
  5
1D6
  8
SLOTS
 10
8.302578456704241
 20
4.091447071100391
 30
0.0
 42
0.0070604779878123
  0
VERTEX
  5
1D7
  8
SLOTS
 10
8.464476895560123
 20
3.899498568873235
 30
0.0
 42
-0.0037828822324444
  0
VERTEX
  5
1D8
  8
SLOTS
 10
8.479788665177622
 20
3.993328987548204
 30
0.0
 42
-0.1567836664882576
  0
VERTEX
  5
1D9
  8
SLOTS
 10
8.519464181761975
 20
4.069471454122083
 30
0.0
 42
-0.0158128167662228
  0
VERTEX
  5
1DA
  8
SLOTS
 10
8.524026434826787
 20
4.073702730449599
 30
0.0
 42
0.0052705484657586
  0
VERTEX
  5
1DB
  8
SLOTS
 10
8.528676871235154
 20
4.077836892226663
 30
0.0
 42
0.0114216133944227
  0
VERTEX
  5
1DC
  8
SLOTS
 10
8.633367769452317
 20
3.844354451886831
 30
0.0
 42
0.0460790452039404
  0
VERTEX
  5
1DD
  8
SLOTS
 10
8.805650164845943
 20
3.554615308837432
 30
0.0
 42
0.0451944848990538
  0
VERTEX
  5
1DE
  8
SLOTS
 10
9.02761518007479
 20
3.300960881104892
 30
0.0
 42
0.0249278824111424
  0
VERTEX
  5
1DF
  8
SLOTS
 10
9.489688075141485
 20
2.902384161988237
 30
0.0
 42
0.0549314969607049
  0
VERTEX
  5
1E0
  8
SLOTS
 10
9.695246054820785
 20
2.775744791681744
 30
0.0
 42
0.1047076851792846
  0
VERTEX
  5
1E1
  8
SLOTS
 10
9.776211431017222
 20
2.756466850307702
 30
0.0
 42
0.4642114971521262
  0
VERTEX
  5
1E2
  8
SLOTS
 10
9.801459241807875
 20
2.784868960795996
 30
0.0
 42
0.0568199829799298
  0
VERTEX
  5
1E3
  8
SLOTS
 10
9.784179530095328
 20
2.85086941921116
 30
0.0
 42
-0.0088697013874555
  0
VERTEX
  5
1E4
  8
SLOTS
 10
10.15870673623456
 20
2.775695992833033
 30
0.0
 42
0.0252807789010115
  0
VERTEX
  5
1E5
  8
SLOTS
 10
10.53549848598123
 20
2.71284975591518
 30
0.0
 42
0.0372250601613082
  0
VERTEX
  5
1E6
  8
SLOTS
 10
10.87308848659958
 20
2.699235794350418
 30
0.0
 42
0.0037058794056064
  0
VERTEX
  5
1E7
  8
SLOTS
 10
11.19702765302838
 20
2.712694266220348
 30
0.0
 42
0.0014549233759097
  0
VERTEX
  5
1E8
  8
SLOTS
 10
11.32991704678174
 20
2.719589961024449
 30
0.0
 42
0.3616291623643698
  0
VERTEX
  5
1E9
  8
SLOTS
 10
11.36624967474424
 20
2.753352439964481
 30
0.0
 42
0.0734808205411681
  0
VERTEX
  5
1EA
  8
SLOTS
 10
11.36525534707668
 20
2.806679127607334
 30
0.0
 42
-0.0964776531613439
  0
VERTEX
  5
1EB
  8
SLOTS
 10
11.37101760130552
 20
3.019900627904683
 30
0.0
 42
-0.0424040302941596
  0
VERTEX
  5
1EC
  8
SLOTS
 10
11.37498885575968
 20
3.032553044879246
 30
0.0
 42
-0.1322665203300621
  0
VERTEX
  5
1ED
  8
SLOTS
 10
11.37760859319712
 20
3.035985590881111
 30
0.0
 42
-0.0420797855002601
  0
VERTEX
  5
1EE
  8
SLOTS
 10
11.41749511685221
 20
3.061651928419952
 30
0.0
 42
0.0308190902591138
  0
VERTEX
  5
1EF
  8
SLOTS
 10
11.57930155374178
 20
3.160698209896514
 30
0.0
 42
0.0875481278733491
  0
VERTEX
  5
1F0
  8
SLOTS
 10
11.70810997524834
 20
3.289548128809259
 30
0.0
 42
0.0335785005601467
  0
VERTEX
  5
1F1
  8
SLOTS
 10
11.76820917875747
 20
3.38902789027399
 30
0.0
 42
-0.0256362190709079
  0
VERTEX
  5
1F2
  8
SLOTS
 10
11.87411849551689
 20
3.570791561861089
 30
0.0
 42
-0.034051081627219
  0
VERTEX
  5
1F3
  8
SLOTS
 10
11.96962781066265
 20
3.697234151530502
 30
0.0
 42
0.0197586123377127
  0
VERTEX
  5
1F4
  8
SLOTS
 10
12.03527569113791
 20
3.779169008110649
 30
0.0
 42
0.1218595954358277
  0
VERTEX
  5
1F5
  8
SLOTS
 10
12.08190913202104
 20
3.891513681798739
 30
0.0
 42
0.0001031897898094
  0
VERTEX
  5
1F6
  8
SLOTS
 10
12.11776962328737
 20
4.127638279063774
 30
0.0
 42
0.0305033076343134
  0
VERTEX
  5
1F7
  8
SLOTS
 10
12.13620719322836
 20
4.333036063613321
 30
0.0
 42
-0.0219322297523911
  0
VERTEX
  5
1F8
  8
SLOTS
 10
12.13848260997551
 20
4.364411729291808
 30
0.0
 42
-0.040801107328917
  0
VERTEX
  5
1F9
  8
SLOTS
 10
12.14180972121328
 20
4.381011562787431
 30
0.0
 42
0.1161629502985958
  0
VERTEX
  5
1FA
  8
SLOTS
 10
12.1181910079254
 20
4.381677463758321
 30
0.0
 42
0.0656926838257054
  0
VERTEX
  5
1FB
  8
SLOTS
 10
12.02721157742922
 20
4.350077006706176
 30
0.0
 42
0.086523046393895
  0
VERTEX
  5
1FC
  8
SLOTS
 10
11.95565777397256
 20
4.297011653827915
 30
0.0
 42
0.0770729640718379
  0
VERTEX
  5
1FD
  8
SLOTS
 10
11.89876467808407
 20
4.2149521636622
 30
0.0
 42
0.0052376654746887
  0
VERTEX
  5
1FE
  8
SLOTS
 10
11.82237244117163
 20
4.053485301865264
 30
0.0
 42
-0.0249424369346934
  0
VERTEX
  5
1FF
  8
SLOTS
 10
11.73967945339732
 20
3.895152768594323
 30
0.0
 42
-0.0165963807876529
  0
VERTEX
  5
200
  8
SLOTS
 10
11.66486541650361
 20
3.776973733149888
 30
0.0
 42
0.0113704730298212
  0
VERTEX
  5
201
  8
SLOTS
 10
11.36068925443145
 20
3.307415622823926
 30
0.0
 42
0.0291563783898207
  0
VERTEX
  5
202
  8
SLOTS
 10
11.32331175282694
 20
3.379978099735166
 30
0.0
 42
0.15457991649706
  0
VERTEX
  5
203
  8
SLOTS
 10
11.24987136360461
 20
3.445715381399295
 30
0.0
 42
0.0913156595153034
  0
VERTEX
  5
204
  8
SLOTS
 10
11.14656656057735
 20
3.471132585579375
 30
0.0
 42
0.0537554473620671
  0
VERTEX
  5
205
  8
SLOTS
 10
10.72442240841294
 20
3.450733599717981
 30
0.0
 42
0.0525074108087217
  0
VERTEX
  5
206
  8
SLOTS
 10
10.54399401988868
 20
3.402617746985066
 30
0.0
 42
-0.027638373010824
  0
VERTEX
  5
207
  8
SLOTS
 10
10.36617627573711
 20
3.34560556815875
 30
0.0
 42
-0.0782553847030652
  0
VERTEX
  5
208
  8
SLOTS
 10
10.16141258282168
 20
3.325306469876876
 30
0.0
 42
-0.0251713448306072
  0
VERTEX
  5
209
  8
SLOTS
 10
9.90231950650544
 20
3.35332262042443
 30
0.0
 42
-0.001557264013123
  0
VERTEX
  5
20A
  8
SLOTS
 10
9.868210515074404
 20
3.358867704512718
 30
0.0
 42
0.0005190876313882
  0
VERTEX
  5
20B
  8
SLOTS
 10
9.83411311069816
 20
3.36448359881298
 30
0.0
 42
0.005034923243183
  0
VERTEX
  5
20C
  8
SLOTS
 10
9.880768549300893
 20
3.478137961087966
 30
0.0
 42
0.2408806411283649
  0
VERTEX
  5
20D
  8
SLOTS
 10
9.870483397383435
 20
3.588058753041254
 30
0.0
 42
0.115126342000585
  0
VERTEX
  5
20E
  8
SLOTS
 10
9.79197911639977
 20
3.665024241476322
 30
0.0
 42
0.0458258060089282
  0
VERTEX
  5
20F
  8
SLOTS
 10
9.546574792731807
 20
3.784984651196972
 30
0.0
 42
-0.0008189954020005
  0
VERTEX
  5
210
  8
SLOTS
 10
9.319863607471707
 20
3.871543326250113
 30
0.0
 42
-0.0707875181765961
  0
VERTEX
  5
211
  8
SLOTS
 10
9.133489232963369
 20
3.97523079622742
 30
0.0
 42
-0.0504932783723183
  0
VERTEX
  5
212
  8
SLOTS
 10
8.981866503923976
 20
4.116464343041065
 30
0.0
 42
-0.0120492247631693
  0
VERTEX
  5
213
  8
SLOTS
 10
8.785483961036073
 20
4.35158637429469
 30
0.0
 42
0.1035162427154962
  0
VERTEX
  5
214
  8
SLOTS
 10
8.842904145589339
 20
4.521745738769035
 30
0.0
 42
0.0194884910691326
  0
VERTEX
  5
215
  8
SLOTS
 10
8.866483771024974
 20
4.815196255916989
 30
0.0
 42
0.0248214141508683
  0
VERTEX
  5
216
  8
SLOTS
 10
8.861660734750757
 20
5.387720043112995
 30
0.0
 42
0.0713274129466447
  0
VERTEX
  5
217
  8
SLOTS
 10
8.690357890652896
 20
6.230747308683878
 30
0.0
 42
0.0164978403755967
  0
VERTEX
  5
218
  8
SLOTS
 10
8.616884299290252
 20
6.416926407176268
 30
0.0
 42
0.0137359857445757
  0
VERTEX
  5
219
  8
SLOTS
 10
8.5152952270863
 20
6.634780787293741
 30
0.0
 42
0.0027115226649659
  0
VERTEX
  5
21A
  8
SLOTS
 10
8.503872130359595
 20
6.657311501914375
 30
0.0
 42
-0.2741025551638219
  0
VERTEX
  5
21B
  8
SLOTS
 10
8.505155886043065
 20
6.678537227831677
 30
0.0
 42
-0.034539679798931
  0
VERTEX
  5
21C
  8
SLOTS
 10
8.541289046257862
 20
6.724662063894323
 30
0.0
 42
-0.1095958073040112
  0
VERTEX
  5
21D
  8
SLOTS
 10
8.61005641350342
 20
6.773641736912485
 30
0.0
 42
-0.104608133558817
  0
VERTEX
  5
21E
  8
SLOTS
 10
8.730272471880188
 20
6.79702642868749
 30
0.0
 42
-0.0333592986197782
  0
VERTEX
  5
21F
  8
SLOTS
 10
8.885353517941995
 20
6.784120529867288
 30
0.0
 42
-0.0196971657706679
  0
VERTEX
  5
220
  8
SLOTS
 10
8.922498491570092
 20
6.937535136073532
 30
0.0
 42
-0.1333487956353329
  0
VERTEX
  5
221
  8
SLOTS
 10
9.014679640905648
 20
7.090596273295818
 30
0.0
 42
-0.0332220646553795
  0
VERTEX
  5
222
  8
SLOTS
 10
9.084153213649609
 20
7.148777821669707
 30
0.0
 42
-0.0101208465133334
  0
VERTEX
  5
223
  8
SLOTS
 10
9.327633326482564
 20
7.319135499927527
 30
0.0
 42
-0.0305736022672253
  0
VERTEX
  5
224
  8
SLOTS
 10
9.310655110614764
 20
7.4292640058119
 30
0.0
 42
-0.2041178518554964
  0
VERTEX
  5
225
  8
SLOTS
 10
9.349388508268667
 20
7.549821458161329
 30
0.0
 42
-0.0525441373721432
  0
VERTEX
  5
226
  8
SLOTS
 10
9.402702343785792
 20
7.599711169492706
 30
0.0
 42
-0.0165602276425172
  0
VERTEX
  5
227
  8
SLOTS
 10
9.591574811669718
 20
7.732880122623453
 30
0.0
 42
-0.0092315663715152
  0
VERTEX
  5
228
  8
SLOTS
 10
9.584908183085616
 20
7.846621926666945
 30
0.0
 42
-0.1194939781962896
  0
VERTEX
  5
229
  8
SLOTS
 10
9.607324568604563
 20
7.958481525030289
 30
0.0
 42
-0.0131355633766096
  0
VERTEX
  5
22A
  8
SLOTS
 10
9.61212476647998
 20
7.968123831315916
 30
0.0
 42
-0.008579125531492
  0
VERTEX
  5
22B
  8
SLOTS
 10
9.620107601814114
 20
7.982552817038134
 30
0.0
 42
-0.0455812956467146
  0
VERTEX
  5
22C
  8
SLOTS
 10
9.695694738683024
 20
7.871411482368332
 30
0.0
 42
-0.079818674214943
  0
VERTEX
  5
22D
  8
SLOTS
 10
9.747139608313416
 20
7.729085333405249
 30
0.0
 42
-0.0552709541055426
  0
VERTEX
  5
22E
  8
SLOTS
 10
9.76789719282665
 20
7.460446267594264
 30
0.0
 42
-0.0026836582424505
  0
VERTEX
  5
22F
  8
SLOTS
 10
9.756899931120298
 20
7.176279075539087
 30
0.0
 42
0.0199657030264034
  0
VERTEX
  5
230
  8
SLOTS
 10
9.756034564837824
 20
6.966335147026895
 30
0.0
 42
0.0863386641219161
  0
VERTEX
  5
231
  8
SLOTS
 10
9.811820072408661
 20
6.702085738793859
 30
0.0
 42
0.0535709839257029
  0
VERTEX
  5
232
  8
SLOTS
 10
9.9182059691491
 20
6.501350667216962
 30
0.0
 42
0.0362433495760672
  0
VERTEX
  5
233
  8
SLOTS
 10
10.24793517130813
 20
6.082445699020665
 30
0.0
 42
0.0210554493093437
  0
VERTEX
  5
234
  8
SLOTS
 10
10.80334307483994
 20
5.522577064582343
 30
0.0
 42
0.0092078793453006
  0
VERTEX
  5
235
  8
SLOTS
 10
11.15577177514094
 20
5.207893910403939
 30
0.0
 42
0.0011592478886423
  0
VERTEX
  5
236
  8
SLOTS
 10
11.21141635524432
 20
5.160245073594103
 30
0.0
 42
0.0003789418766256
  0
VERTEX
  5
237
  8
SLOTS
 10
11.38209004488988
 20
5.015003691405266
 30
0.0
  0
VERTEX
  5
238
  8
SLOTS
 10
11.26795409291176
 20
5.207610805531151
 30
0.0
 42
0.0131559967359965
  0
VERTEX
  5
239
  8
SLOTS
 10
11.59978935990316
 20
5.165425972297899
 30
0.0
 42
0.0911034141860248
  0
VERTEX
  5
23A
  8
SLOTS
 10
11.97504764661116
 20
5.196103157206272
 30
0.0
 42
0.0144764229184634
  0
VERTEX
  5
23B
  8
SLOTS
 10
12.02482086713286
 20
5.211076766262074
 30
0.0
 42
0.0077165755242039
  0
VERTEX
  5
23C
  8
SLOTS
 10
12.116844128762
 20
5.243277991061785
 30
0.0
  0
VERTEX
  5
23D
  8
SLOTS
 10
12.09544333830357
 20
5.39308112857054
 30
0.0
 42
0.0172560546055255
  0
VERTEX
  5
23E
  8
SLOTS
 10
12.25515903727939
 20
5.434184778838338
 30
0.0
 42
0.0771801021356323
  0
VERTEX
  5
23F
  8
SLOTS
 10
12.44495177179682
 20
5.523640446664768
 30
0.0
 42
0.05936854690578
  0
VERTEX
  5
240
  8
SLOTS
 10
12.6637443747276
 20
5.712883455566637
 30
0.0
 42
0.0917167732571269
  0
VERTEX
  5
241
  8
SLOTS
 10
12.97688756810503
 20
6.21662969026209
 30
0.0
 42
0.0114019961238621
  0
VERTEX
  5
242
  8
SLOTS
 10
13.00748865346947
 20
6.300345630167079
 30
0.0
 42
0.0084225376155977
  0
VERTEX
  5
243
  8
SLOTS
 10
13.04438797951022
 20
6.415222116818271
 30
0.0
 42
-0.1092507826582353
  0
VERTEX
  5
244
  8
SLOTS
 10
12.92316778185487
 20
6.348888003448971
 30
0.0
 42
-0.0549993059120896
  0
VERTEX
  5
245
  8
SLOTS
 10
12.84694273526373
 20
6.33555377774883
 30
0.0
 42
-0.0047739987924824
  0
VERTEX
  5
246
  8
SLOTS
 10
12.83857082836692
 20
6.335103402682799
 30
0.0
 42
0.00159132218488
  0
VERTEX
  5
247
  8
SLOTS
 10
12.83019622432556
 20
6.334706325940485
 30
0.0
 42
-0.0817595930833458
  0
VERTEX
  5
248
  8
SLOTS
 10
12.83596389576023
 20
6.375889491768018
 30
0.0
 42
0.0007115980694444
  0
VERTEX
  5
249
  8
SLOTS
 10
12.88513136951694
 20
6.534342031953355
 30
0.0
 42
0.0108193372703154
  0
VERTEX
  5
24A
  8
SLOTS
 10
12.98203891589365
 20
6.874140132708216
 30
0.0
 42
0.0254577812643095
  0
VERTEX
  5
24B
  8
SLOTS
 10
13.10060563880198
 20
7.44360686534363
 30
0.0
 42
0.0177644637778845
  0
VERTEX
  5
24C
  8
SLOTS
 10
13.14600433266652
 20
7.823808634483076
 30
0.0
 42
0.0187327283059375
  0
VERTEX
  5
24D
  8
SLOTS
 10
13.16265058808221
 20
8.186550727993538
 30
0.0
 42
-0.0038220333818565
  0
VERTEX
  5
24E
  8
SLOTS
 10
13.16408107037943
 20
8.27572060274738
 30
0.0
 42
-0.1287356215661681
  0
VERTEX
  5
24F
  8
SLOTS
 10
13.17028013466312
 20
8.297298985160491
 30
0.0
 42
0.0331252359652997
  0
VERTEX
  5
250
  8
SLOTS
 10
13.28360022425734
 20
8.520614828250036
 30
0.0
 42
0.0318760060062214
  0
VERTEX
  5
251
  8
SLOTS
 10
13.43021962574944
 20
8.935593382961386
 30
0.0
 42
0.0310833165573687
  0
VERTEX
  5
252
  8
SLOTS
 10
13.48106793962984
 20
9.169845505244009
 30
0.0
 42
0.0197241823674442
  0
VERTEX
  5
253
  8
SLOTS
 10
13.52332401231304
 20
9.545009999843401
 30
0.0
 42
0.0393463316787396
  0
VERTEX
  5
254
  8
SLOTS
 10
13.52125974562808
 20
9.892841997116227
 30
0.0
 42
0.0526207998240623
  0
VERTEX
  5
255
  8
SLOTS
 10
13.37421604388931
 20
10.65853019926426
 30
0.0
 42
0.0371406158310652
  0
VERTEX
  5
256
  8
SLOTS
 10
13.2800507764456
 20
10.90194274454573
 30
0.0
 42
0.0192891659751526
  0
VERTEX
  5
257
  8
SLOTS
 10
13.16547088272383
 20
11.12098963820334
 30
0.0
 42
-0.0109563310607709
  0
VERTEX
  5
258
  8
SLOTS
 10
13.20966313003137
 20
10.89622784821775
 30
0.0
 42
-0.108611673633202
  0
VERTEX
  5
259
  8
SLOTS
 10
13.20469420281315
 20
10.78374249422203
 30
0.0
 42
-0.0582694999386646
  0
VERTEX
  5
25A
  8
SLOTS
 10
13.1945916215641
 20
10.75822156926918
 30
0.0
 42
-0.0422732720785637
  0
VERTEX
  5
25B
  8
SLOTS
 10
13.17395947683993
 20
10.7265807404602
 30
0.0
 42
0.3633843622403639
  0
VERTEX
  5
25C
  8
SLOTS
 10
13.1745834418159
 20
10.70864202912746
 30
0.0
 42
-0.0198143883917819
  0
VERTEX
  5
25D
  8
SLOTS
 10
13.21845209256255
 20
10.65573168513906
 30
0.0
 42
-0.0349053259708769
  0
VERTEX
  5
25E
  8
SLOTS
 10
13.27762141741739
 20
10.56597647993901
 30
0.0
 42
-0.209782190361391
  0
VERTEX
  5
25F
  8
SLOTS
 10
13.29008122860417
 20
10.44114934340848
 30
0.0
 42
-0.0821102627833519
  0
VERTEX
  5
260
  8
SLOTS
 10
13.25239125902584
 20
10.36838689763596
 30
0.0
 42
-0.0643210758931547
  0
VERTEX
  5
261
  8
SLOTS
 10
13.17973967349629
 20
10.29350039281151
 30
0.0
 42
-0.0213484460132484
  0
VERTEX
  5
262
  8
SLOTS
 10
13.2583349951447
 20
10.14889474187425
 30
0.0
 42
-0.1061710885212298
  0
VERTEX
  5
263
  8
SLOTS
 10
13.28324687286958
 20
10.04866463026663
 30
0.0
 42
-0.126638749611559
  0
VERTEX
  5
264
  8
SLOTS
 10
13.26855250596389
 20
9.982914716960765
 30
0.0
 42
-0.1211069398366232
  0
VERTEX
  5
265
  8
SLOTS
 10
13.22254125441316
 20
9.92969174641871
 30
0.0
 42
-0.0229297929963455
  0
VERTEX
  5
266
  8
SLOTS
 10
13.26613552263813
 20
9.8420558434081
 30
0.0
 42
-0.1928576092619531
  0
VERTEX
  5
267
  8
SLOTS
 10
13.26980229506244
 20
9.736473149605036
 30
0.0
 42
-0.0660813093041942
  0
VERTEX
  5
268
  8
SLOTS
 10
13.24535411167244
 20
9.689316207751604
 30
0.0
 42
-0.0269889079552191
  0
VERTEX
  5
269
  8
SLOTS
 10
13.16547088272383
 20
9.58728149478407
 30
0.0
 42
0.0098693031103291
  0
VERTEX
  5
26A
  8
SLOTS
 10
13.21865147712708
 20
9.454547507716526
 30
0.0
 42
-0.1927289076761793
  0
VERTEX
  5
26B
  8
SLOTS
 10
13.21937653096386
 20
9.418336509191182
 30
0.0
 42
-0.1547602730871549
  0
VERTEX
  5
26C
  8
SLOTS
 10
13.18742674610568
 20
9.377830440287857
 30
0.0
 42
0.0931475415668629
  0
VERTEX
  5
26D
  8
SLOTS
 10
13.1194732547028
 20
9.310388753576035
 30
0.0
 42
0.0583541059642083
  0
VERTEX
  5
26E
  8
SLOTS
 10
13.08850620457584
 20
9.251887501284774
 30
0.0
 42
-0.0617021069564584
  0
VERTEX
  5
26F
  8
SLOTS
 10
12.96308006024524
 20
9.018715175274505
 30
0.0
 42
0.0000131794765968
  0
VERTEX
  5
270
  8
SLOTS
 10
12.95727264507282
 20
9.010524110722862
 30
0.0
 42
-0.0000043931525145
  0
VERTEX
  5
271
  8
SLOTS
 10
12.95146537383978
 20
9.002332944120967
 30
0.0
 42
0.00360281803866
  0
VERTEX
  5
272
  8
SLOTS
 10
13.02403205305706
 20
9.413826611977193
 30
0.0
 42
0.0297456821868842
  0
VERTEX
  5
273
  8
SLOTS
 10
13.07271379099539
 20
9.863352718116648
 30
0.0
 42
0.0443931191878291
  0
VERTEX
  5
274
  8
SLOTS
 10
13.04383089062668
 20
10.57919017268796
 30
0.0
 42
0.0434142824047873
  0
VERTEX
  5
275
  8
SLOTS
 10
12.88695889266856
 20
11.29470519304432
 30
0.0
 42
0.0016493637289474
  0
VERTEX
  5
276
  8
SLOTS
 10
12.87932648463062
 20
11.31887259008504
 30
0.0
 42
0.0003656956291823
  0
VERTEX
  5
277
  8
SLOTS
 10
12.84446381724788
 20
11.42773270430733
 30
0.0
 42
-0.0150672181105498
  0
VERTEX
  5
278
  8
SLOTS
 10
12.85371609489335
 20
11.23559582541663
 30
0.0
 42
-0.0509709017738878
  0
VERTEX
  5
279
  8
SLOTS
 10
12.83106201052659
 20
10.96611467939224
 30
0.0
 42
-0.0074328333159139
  0
VERTEX
  5
27A
  8
SLOTS
 10
12.76094099980433
 20
10.62123745913361
 30
0.0
 42
-0.0094025131213944
  0
VERTEX
  5
27B
  8
SLOTS
 10
12.64474143503744
 20
10.13431041470085
 30
0.0
 42
-0.011289454620688
  0
VERTEX
  5
27C
  8
SLOTS
 10
12.56456798417359
 20
9.850851113013723
 30
0.0
 42
0.0232592561282995
  0
VERTEX
  5
27D
  8
SLOTS
 10
12.42831825110329
 20
9.32102960948972
 30
0.0
 42
0.045657154586543
  0
VERTEX
  5
27E
  8
SLOTS
 10
12.40663133363826
 20
9.131528544657737
 30
0.0
 42
0.037866435314559
  0
VERTEX
  5
27F
  8
SLOTS
 10
12.4188069694999
 20
8.902019815004355
 30
0.0
 42
0.0010594675388011
  0
VERTEX
  5
280
  8
SLOTS
 10
12.42118312933178
 20
8.883959522927022
 30
0.0
 42
-0.0003531557287777
  0
VERTEX
  5
281
  8
SLOTS
 10
12.42358479916575
 20
8.865902605485944
 30
0.0
 42
-0.0420552986491268
  0
VERTEX
  5
282
  8
SLOTS
 10
12.30186430554087
 20
8.947867041171985
 30
0.0
 42
-0.0421430745642217
  0
VERTEX
  5
283
  8
SLOTS
 10
12.19581348533514
 20
9.048852080151619
 30
0.0
 42
-0.0015581113530721
  0
VERTEX
  5
284
  8
SLOTS
 10
12.18842007484755
 20
9.057239228948136
 30
0.0
 42
0.0005193700776478
  0
VERTEX
  5
285
  8
SLOTS
 10
12.18104410443703
 20
9.065641719297792
 30
0.0
 42
0.0161728867054374
  0
VERTEX
  5
286
  8
SLOTS
 10
12.13849119111359
 20
8.977133078457378
 30
0.0
 42
0.0626158205736704
  0
VERTEX
  5
287
  8
SLOTS
 10
12.10086302472212
 20
8.851378382865523
 30
0.0
 42
0.0018592632163521
  0
VERTEX
  5
288
  8
SLOTS
 10
12.07699095843081
 20
8.7052682006479
 30
0.0
 42
-0.1442949263563939
  0
VERTEX
  5
289
  8
SLOTS
 10
12.02385482357138
 20
8.59380492896085
 30
0.0
 42
0.0986075774116414
  0
VERTEX
  5
28A
  8
SLOTS
 10
11.83702561040625
 20
8.278475261820947
 30
0.0
 42
0.0553112796131861
  0
VERTEX
  5
28B
  8
SLOTS
 10
11.76263130984576
 20
7.957549796162676
 30
0.0
 42
0.0175965460627971
  0
VERTEX
  5
28C
  8
SLOTS
 10
11.70591983726527
 20
7.268249077330797
 30
0.0
 42
0.0171047622303413
  0
VERTEX
  5
28D
  8
SLOTS
 10
11.70262126892197
 20
7.008397874740411
 30
0.0
 42
0.0188688710734863
  0
VERTEX
  5
28E
  8
SLOTS
 10
11.7088517052039
 20
6.903358926528725
 30
0.0
 42
-0.0074554843625639
  0
VERTEX
  5
28F
  8
SLOTS
 10
11.71747756978676
 20
6.798489515174037
 30
0.0
 42
-0.2090484091209932
  0
VERTEX
  5
290
  8
SLOTS
 10
11.71148005381633
 20
6.781800833701021
 30
0.0
 42
0.0071904361537228
  0
VERTEX
  5
291
  8
SLOTS
 10
11.66425991477858
 20
6.730374398484194
 30
0.0
 42
0.0410780581578843
  0
VERTEX
  5
292
  8
SLOTS
 10
11.50090287954633
 20
6.513827349931802
 30
0.0
 42
0.0854333097895748
  0
VERTEX
  5
293
  8
SLOTS
 10
11.39635643996209
 20
6.262164521946151
 30
0.0
 42
0.0163488660306481
  0
VERTEX
  5
294
  8
SLOTS
 10
11.32528570759354
 20
6.453244474366291
 30
0.0
 42
0.0664535969991343
  0
VERTEX
  5
295
  8
SLOTS
 10
11.19184733069475
 20
6.685493951512963
 30
0.0
 42
0.0127893111175541
  0
VERTEX
  5
296
  8
SLOTS
 10
11.16274213923425
 20
6.721501708382519
 30
0.0
 42
0.0058964232092911
  0
VERTEX
  5
297
  8
SLOTS
 10
11.09674776924431
 20
6.797179492006408
 30
0.0
  0
VERTEX
  5
298
  8
SLOTS
 10
11.28222048798396
 20
6.875648258453912
 30
0.0
 42
0.0052451476184044
  0
VERTEX
  5
299
  8
SLOTS
 10
11.20337875813969
 20
7.068403972611391
 30
0.0
 42
0.1261645144795583
  0
VERTEX
  5
29A
  8
SLOTS
 10
11.08556008343967
 20
7.223465852918589
 30
0.0
 42
0.00942709496938
  0
VERTEX
  5
29B
  8
SLOTS
 10
10.97142773803609
 20
7.310443419494556
 30
0.0
 42
-0.1220194812410424
  0
VERTEX
  5
29C
  8
SLOTS
 10
10.90577066674802
 20
7.389089819740256
 30
0.0
 42
-0.0981949270571441
  0
VERTEX
  5
29D
  8
SLOTS
 10
10.8915944012033
 20
7.443025012486471
 30
0.0
 42
-0.0611183512415076
  0
VERTEX
  5
29E
  8
SLOTS
 10
10.89700865543246
 20
7.531933575878523
 30
0.0
  0
VERTEX
  5
29F
  8
SLOTS
 10
11.00401260772461
 20
7.498048791344336
 30
0.0
 42
0.0214086212597259
  0
VERTEX
  5
2A0
  8
SLOTS
 10
10.89806909980339
 20
7.68364970110173
 30
0.0
 42
0.0147969606602691
  0
VERTEX
  5
2A1
  8
SLOTS
 10
10.72580472746527
 20
7.940328599884901
 30
0.0
 42
-0.0092563301556391
  0
VERTEX
  5
2A2
  8
SLOTS
 10
10.76839599194979
 20
8.020702082382904
 30
0.0
 42
0.036608763644723
  0
VERTEX
  5
2A3
  8
SLOTS
 10
10.78893360328811
 20
8.065175319063066
 30
0.0
 42
0.2565415847911534
  0
VERTEX
  5
2A4
  8
SLOTS
 10
10.78684993682505
 20
8.079665888543875
 30
0.0
 42
-0.0343403645378819
  0
VERTEX
  5
2A5
  8
SLOTS
 10
10.77217111037499
 20
8.102246793628767
 30
0.0
 42
-0.0000416314667222
  0
VERTEX
  5
2A6
  8
SLOTS
 10
10.64880848882128
 20
8.323997370176286
 30
0.0
 42
0.0303397563554867
  0
VERTEX
  5
2A7
  8
SLOTS
 10
10.53209849756114
 20
8.506782698760972
 30
0.0
 42
0.0328370290736202
  0
VERTEX
  5
2A8
  8
SLOTS
 10
10.38244958169422
 20
8.686424401611514
 30
0.0
 42
0.030483302470847
  0
VERTEX
  5
2A9
  8
SLOTS
 10
10.19813031925857
 20
8.858009044555038
 30
0.0
 42
-0.0009460222452604
  0
VERTEX
  5
2AA
  8
SLOTS
 10
10.16999179795541
 20
8.881260075157961
 30
0.0
 42
-0.3365845297584508
  0
VERTEX
  5
2AB
  8
SLOTS
 10
10.16280758785387
 20
8.912084629363235
 30
0.0
 42
0.0640403150745828
  0
VERTEX
  5
2AC
  8
SLOTS
 10
10.16998275223639
 20
8.935914826388471
 30
0.0
 42
-0.0161112371928891
  0
VERTEX
  5
2AD
  8
SLOTS
 10
10.18942732558718
 20
9.0334522821556
 30
0.0
 42
-0.0267003276957207
  0
VERTEX
  5
2AE
  8
SLOTS
 10
10.28533369999268
 20
9.364008872793287
 30
0.0
 42
-0.0817588664130455
  0
VERTEX
  5
2AF
  8
SLOTS
 10
10.41648520612107
 20
9.604694296672335
 30
0.0
 42
-0.0034890268384015
  0
VERTEX
  5
2B0
  8
SLOTS
 10
10.42611488891989
 20
9.616872623425596
 30
0.0
 42
-0.0011879162098272
  0
VERTEX
  5
2B1
  8
SLOTS
 10
10.45473124259216
 20
9.652375066657582
 30
0.0
  0
VERTEX
  5
2B2
  8
SLOTS
 10
10.37626247614465
 20
9.716577438032873
 30
0.0
 42
0.1662250091824728
  0
VERTEX
  5
2B3
  8
SLOTS
 10
10.46417942937226
 20
9.810885128771096
 30
0.0
 42
0.0664251827899698
  0
VERTEX
  5
2B4
  8
SLOTS
 10
10.48720621367974
 20
9.88854547029013
 30
0.0
 42
0.020349879190958
  0
VERTEX
  5
2B5
  8
SLOTS
 10
10.50682702242619
 20
10.05855918423196
 30
0.0
 42
-0.0044359421398175
  0
VERTEX
  5
2B6
  8
SLOTS
 10
10.53320000903964
 20
10.37528241272415
 30
0.0
 42
0.0763237230471078
  0
VERTEX
  5
2B7
  8
SLOTS
 10
10.60000205859176
 20
10.31431514737018
 30
0.0
 42
0.2651471869637476
  0
VERTEX
  5
2B8
  8
SLOTS
 10
10.72499162996834
 20
10.30567153595594
 30
0.0
 42
0.1114601670457823
  0
VERTEX
  5
2B9
  8
SLOTS
 10
10.77753018254278
 20
10.34740891794368
 30
0.0
 42
0.1766771748743263
  0
VERTEX
  5
2BA
  8
SLOTS
 10
10.82068911254012
 20
10.47435405371527
 30
0.0
 42
0.1422128554049245
  0
VERTEX
  5
2BB
  8
SLOTS
 10
10.78973936011385
 20
10.57281541235997
 30
0.0
 42
0.138196173075141
  0
VERTEX
  5
2BC
  8
SLOTS
 10
10.70921683772363
 20
10.64189498864748
 30
0.0
 42
0.1331885301010519
  0
VERTEX
  5
2BD
  8
SLOTS
 10
10.62095728895534
 20
10.65700776378488
 30
0.0
 42
0.0210523770568991
  0
VERTEX
  5
2BE
  8
SLOTS
 10
10.54389920641874
 20
10.64635829329753
 30
0.0
 42
-0.0916160983898922
  0
VERTEX
  5
2BF
  8
SLOTS
 10
10.53569207550663
 20
10.97128193469004
 30
0.0
 42
-0.0958212960713877
  0
VERTEX
  5
2C0
  8
SLOTS
 10
10.64190524998898
 20
11.26358922078792
 30
0.0
 42
-0.0084035278719087
  0
VERTEX
  5
2C1
  8
SLOTS
 10
10.6556734385162
 20
11.28572679704642
 30
0.0
 42
-0.0034843274970621
  0
VERTEX
  5
2C2
  8
SLOTS
 10
10.69013754193464
 20
11.33831079625279
 30
0.0
 42
-0.041094691599272
  0
VERTEX
  5
2C3
  8
SLOTS
 10
10.64414175832376
 20
11.39274535140001
 30
0.0
 42
-0.2321178068117861
  0
VERTEX
  5
2C4
  8
SLOTS
 10
10.63039738197754
 20
11.47617888620708
 30
0.0
 42
-0.0728913306557848
  0
VERTEX
  5
2C5
  8
SLOTS
 10
10.64646447981427
 20
11.5104483730956
 30
0.0
 42
-0.0386429979637747
  0
VERTEX
  5
2C6
  8
SLOTS
 10
10.69013754193464
 20
11.56658270020903
 30
0.0
 42
-0.017581916338444
  0
VERTEX
  5
2C7
  8
SLOTS
 10
10.63113107878914
 20
11.69625949085259
 30
0.0
 42
-0.0462032129911293
  0
VERTEX
  5
2C8
  8
SLOTS
 10
10.59463082230914
 20
11.81445344014955
 30
0.0
 42
-0.0210177366045122
  0
VERTEX
  5
2C9
  8
SLOTS
 10
10.57244392134035
 20
11.94756912663899
 30
0.0
 42
-0.0111199517161467
  0
VERTEX
  5
2CA
  8
SLOTS
 10
10.54676220029784
 20
12.20126321555442
 30
0.0
 42
0.0631950616476188
  0
VERTEX
  5
2CB
  8
SLOTS
 10
10.62903950998309
 20
12.19512041803971
 30
0.0
 42
0.2209396465565907
  0
VERTEX
  5
2CC
  8
SLOTS
 10
10.7299766477348
 20
12.24851824218965
 30
0.0
 42
0.0933934776901672
  0
VERTEX
  5
2CD
  8
SLOTS
 10
10.78887214864193
 20
12.36648154470896
 30
0.0
 42
0.3028974097106533
  0
VERTEX
  5
2CE
  8
SLOTS
 10
10.73155385211034
 20
12.5445539248585
 30
0.0
 42
0.2262067232026464
  0
VERTEX
  5
2CF
  8
SLOTS
 10
10.60344555356605
 20
12.57404144096178
 30
0.0
 42
0.0652806619795522
  0
VERTEX
  5
2D0
  8
SLOTS
 10
10.51447291677734
 20
12.54165805576825
 30
0.0
 42
0.0043537139345197
  0
VERTEX
  5
2D1
  8
SLOTS
 10
10.50610760235495
 20
12.53721596083031
 30
0.0
 42
-0.0014512298278686
  0
VERTEX
  5
2D2
  8
SLOTS
 10
10.4977682147151
 20
12.53272538106646
 30
0.0
 42
-0.0249823146407829
  0
VERTEX
  5
2D3
  8
SLOTS
 10
10.52656161261757
 20
12.68714078504848
 30
0.0
 42
-0.1685906643491348
  0
VERTEX
  5
2D4
  8
SLOTS
 10
10.62235968870904
 20
12.8371451565912
 30
0.0
 42
-0.0232341953519259
  0
VERTEX
  5
2D5
  8
SLOTS
 10
10.63849622113281
 20
12.84871278432303
 30
0.0
 42
-0.0163979334060531
  0
VERTEX
  5
2D6
  8
SLOTS
 10
10.66257935638207
 20
12.86323742070316
 30
0.0
 42
-0.1276583371104481
  0
VERTEX
  5
2D7
  8
SLOTS
 10
10.59862405268507
 20
12.89838061919093
 30
0.0
 42
-0.0553670463322603
  0
VERTEX
  5
2D8
  8
SLOTS
 10
10.49116285092802
 20
13.02498976697424
 30
0.0
 42
-0.019824876383812
  0
VERTEX
  5
2D9
  8
SLOTS
 10
10.40962147014453
 20
13.15694549140826
 30
0.0
 42
0.0196078311089133
  0
VERTEX
  5
2DA
  8
SLOTS
 10
10.32813735551029
 20
13.28893658600655
 30
0.0
 42
-0.0273128002626233
  0
VERTEX
  5
2DB
  8
SLOTS
 10
10.30158916193336
 20
13.33346012994894
 30
0.0
 42
-0.1394068002510325
  0
VERTEX
  5
2DC
  8
SLOTS
 10
10.2886405348765
 20
13.39541522085294
 30
0.0
 42
-0.0499220560574397
  0
VERTEX
  5
2DD
  8
SLOTS
 10
10.29449025801911
 20
13.42933959642083
 30
0.0
 42
-0.0246816163932692
  0
VERTEX
  5
2DE
  8
SLOTS
 10
10.31634361684142
 20
13.49531306876093
 30
0.0
  0
VERTEX
  5
2DF
  8
SLOTS
 10
10.32276049999858
 20
13.49531067306067
 30
0.0
 42
-0.0270809923237697
  0
VERTEX
  5
2E0
  8
SLOTS
 10
10.28615070043555
 20
13.53031239445702
 30
0.0
 42
0.0043081597877973
  0
VERTEX
  5
2E1
  8
SLOTS
 10
10.146264939673
 20
13.67680923379761
 30
0.0
 42
-0.0242933295014317
  0
VERTEX
  5
2E2
  8
SLOTS
 10
10.06692193785953
 20
13.76684425064041
 30
0.0
 42
-0.1537703395346365
  0
VERTEX
  5
2E3
  8
SLOTS
 10
10.01714620803461
 20
13.89570119026178
 30
0.0
 42
-0.073735185689085
  0
VERTEX
  5
2E4
  8
SLOTS
 10
10.02304371272427
 20
13.96597509336662
 30
0.0
 42
-0.0447065328757606
  0
VERTEX
  5
2E5
  8
SLOTS
 10
10.05953737916765
 20
14.07599400727931
 30
0.0
 42
-0.0289542234316325
  0
VERTEX
  5
2E6
  8
SLOTS
 10
9.913044503008079
 20
14.11099308638222
 30
0.0
 42
-0.1203599964534922
  0
VERTEX
  5
2E7
  8
SLOTS
 10
9.743864950538612
 20
14.21056806885043
 30
0.0
 42
-0.0327104704013758
  0
VERTEX
  5
2E8
  8
SLOTS
 10
9.68499777207334
 20
14.27583952417633
 30
0.0
 42
-0.0338370185263639
  0
VERTEX
  5
2E9
  8
SLOTS
 10
9.602532150880933
 20
14.39617036366841
 30
0.0
 42
-0.0447214634532417
  0
VERTEX
  5
2EA
  8
SLOTS
 10
9.577968509771747
 20
14.44783950851892
 30
0.0
 42
-0.154108868936674
  0
VERTEX
  5
2EB
  8
SLOTS
 10
9.574095920353047
 20
14.52749018927548
 30
0.0
 42
-0.0417431581097748
  0
VERTEX
  5
2EC
  8
SLOTS
 10
9.581156042287315
 20
14.5474065207737
 30
0.0
 42
-0.0079775793944433
  0
VERTEX
  5
2ED
  8
SLOTS
 10
9.628178289436141
 20
14.64727215341751
 30
0.0
 42
-0.0091917475914328
  0
VERTEX
  5
2EE
  8
SLOTS
 10
9.520823305051415
 20
14.6777560556451
 30
0.0
 42
-0.0751778183073821
  0
VERTEX
  5
2EF
  8
SLOTS
 10
9.411595547951432
 20
14.72986428045273
 30
0.0
 42
-0.0392135103668088
  0
VERTEX
  5
2F0
  8
SLOTS
 10
9.336871015372726
 20
14.78950276974036
 30
0.0
 42
-0.032801002330229
  0
VERTEX
  5
2F1
  8
SLOTS
 10
9.136003076043735
 20
15.00372261891601
 30
0.0
 42
-0.0615060551489171
  0
VERTEX
  5
2F2
  8
SLOTS
 10
9.10348401638991
 20
15.0550415291977
 30
0.0
 42
-0.1294574791056843
  0
VERTEX
  5
2F3
  8
SLOTS
 10
9.084184232089331
 20
15.15847688120134
 30
0.0
 42
-0.0173999614743026
  0
VERTEX
  5
2F4
  8
SLOTS
 10
9.08581026388484
 20
15.17350041158183
 30
0.0
 42
-0.0063356086987312
  0
VERTEX
  5
2F5
  8
SLOTS
 10
9.092227027140082
 20
15.21449153521957
 30
0.0
  0
VERTEX
  5
2F6
  8
SLOTS
 10
9.008665001931293
 20
15.27807581592676
 30
0.0
 42
-0.0235642115469387
  0
VERTEX
  5
2F7
  8
SLOTS
 10
9.150964790178273
 20
15.47784043483819
 30
0.0
 42
-0.0206247777693089
  0
VERTEX
  5
2F8
  8
SLOTS
 10
9.33302851845886
 20
15.69080984272965
 30
0.0
 42
0.0413310609585026
  0
VERTEX
  5
2F9
  8
SLOTS
 10
9.541462679488188
 20
15.9561001096778
 30
0.0
 42
0.0593121487296517
  0
VERTEX
  5
2FA
  8
SLOTS
 10
9.64704485558268
 20
16.16663146104827
 30
0.0
  0
VERTEX
  5
2FB
  8
SLOTS
 10
9.496077407745608
 20
16.18819755482492
 30
0.0
 42
-0.0087236538261826
  0
VERTEX
  5
2FC
  8
SLOTS
 10
9.574399474952418
 20
16.37970867432227
 30
0.0
 42
-0.0197482716138025
  0
VERTEX
  5
2FD
  8
SLOTS
 10
9.659097921622031
 20
16.55723998529941
 30
0.0
 42
0.0161600371148124
  0
VERTEX
  5
2FE
  8
SLOTS
 10
9.733934391940334
 20
16.71124740895516
 30
0.0
 42
0.0289445322719839
  0
VERTEX
  5
2FF
  8
SLOTS
 10
9.767821688692651
 20
16.80069665852416
 30
0.0
  0
VERTEX
  5
300
  8
SLOTS
 10
9.68586717836102
 20
16.79638439804895
 30
0.0
 42
0.0314980235256655
  0
VERTEX
  5
301
  8
SLOTS
 10
9.798743258778224
 20
17.20365844467899
 30
0.0
 42
0.0082581465437534
  0
VERTEX
  5
302
  8
SLOTS
 10
9.85840071997473
 20
17.51240410585647
 30
0.0
 42
-0.0229340547981626
  0
VERTEX
  5
303
  8
SLOTS
 10
9.99074404890409
 20
17.43468486055747
 30
0.0
 42
-0.0526610590900546
  0
VERTEX
  5
304
  8
SLOTS
 10
10.04274561064006
 20
17.39245398796724
 30
0.0
 42
0.0181806570142167
  0
VERTEX
  5
305
  8
SLOTS
 10
10.25492753797499
 20
17.19441005798151
 30
0.0
 42
-0.0638002040908649
  0
VERTEX
  5
306
  8
SLOTS
 10
10.44821915717071
 20
16.97789003941405
 30
0.0
 42
-0.006987667606919
  0
VERTEX
  5
307
  8
SLOTS
 10
10.46772165191624
 20
16.94859649727342
 30
0.0
 42
-0.0031451042580286
  0
VERTEX
  5
308
  8
SLOTS
 10
10.50972214645232
 20
16.88265116885579
 30
0.0
  0
VERTEX
  5
309
  8
SLOTS
 10
10.62618192768654
 20
16.9516665020615
 30
0.0
 42
0.0262806523764567
  0
VERTEX
  5
30A
  8
SLOTS
 10
10.63989642125122
 20
16.79960014755238
 30
0.0
 42
0.2251035908227209
  0
VERTEX
  5
30B
  8
SLOTS
 10
10.73064916264468
 20
16.66267646758577
 30
0.0
 42
0.0747795219397689
  0
VERTEX
  5
30C
  8
SLOTS
 10
10.78333771707692
 20
16.64081075606317
 30
0.0
 42
0.0635108724548255
  0
VERTEX
  5
30D
  8
SLOTS
 10
10.84994033234539
 20
16.6329664959398
 30
0.0
 42
0.1181597157379351
  0
VERTEX
  5
30E
  8
SLOTS
 10
10.83798330328632
 20
16.5872195457067
 30
0.0
 42
0.0327823188359531
  0
VERTEX
  5
30F
  8
SLOTS
 10
10.84897777109295
 20
16.3436915199046
 30
0.0
 42
0.0634718921426202
  0
VERTEX
  5
310
  8
SLOTS
 10
10.92367820194776
 20
16.03500622199227
 30
0.0
 42
0.056115395302163
  0
VERTEX
  5
311
  8
SLOTS
 10
11.19705445725606
 20
15.50514523656711
 30
0.0
 42
0.0341638399018912
  0
VERTEX
  5
312
  8
SLOTS
 10
11.52886216646586
 20
15.07471911848577
 30
0.0
 42
0.0024482039538414
  0
VERTEX
  5
313
  8
SLOTS
 10
11.89481541969377
 20
14.6657372241452
 30
0.0
 42
-0.022481159157094
  0
VERTEX
  5
314
  8
SLOTS
 10
12.30494426636158
 20
14.16868350353071
 30
0.0
 42
0.0314268865764673
  0
VERTEX
  5
315
  8
SLOTS
 10
12.40968494623394
 20
14.04626902837793
 30
0.0
 42
0.0689703887289825
  0
VERTEX
  5
316
  8
SLOTS
 10
12.48667016446197
 20
13.98621255657977
 30
0.0
 42
0.0728418058611153
  0
VERTEX
  5
317
  8
SLOTS
 10
12.57259495988711
 20
13.95195869393466
 30
0.0
 42
0.100026325205583
  0
VERTEX
  5
318
  8
SLOTS
 10
12.56512207923719
 20
13.90630642802986
 30
0.0
 42
0.0454938720122958
  0
VERTEX
  5
319
  8
SLOTS
 10
12.59397592832468
 20
13.68222809829066
 30
0.0
 42
0.0372016840715527
  0
VERTEX
  5
31A
  8
SLOTS
 10
12.67811899239231
 20
13.40367469098331
 30
0.0
 42
0.0293214670958994
  0
VERTEX
  5
31B
  8
SLOTS
 10
12.92686366753396
 20
12.85603514579548
 30
0.0
 42
0.054412020860223
  0
VERTEX
  5
31C
  8
SLOTS
 10
13.14718806958237
 20
12.52958972641374
 30
0.0
 42
0.0012604367898126
  0
VERTEX
  5
31D
  8
SLOTS
 10
13.43064920112835
 20
12.19640192360648
 30
0.0
 42
0.0163157671292204
  0
VERTEX
  5
31E
  8
SLOTS
 10
13.63399860512773
 20
11.97373364841
 30
0.0
 42
0.023629788427095
  0
VERTEX
  5
31F
  8
SLOTS
 10
13.78627108783789
 20
11.83163938386908
 30
0.0
 42
0.0010333283437778
  0
VERTEX
  5
320
  8
SLOTS
 10
13.69253740312591
 20
12.11370163609037
 30
0.0
 42
-0.0138593347241672
  0
VERTEX
  5
321
  8
SLOTS
 10
13.63039395888567
 20
12.31807561787583
 30
0.0
 42
-0.0046124620431368
  0
VERTEX
  5
322
  8
SLOTS
 10
13.54557410577731
 20
12.63919222664837
 30
0.0
 42
0.0216217495104735
  0
VERTEX
  5
323
  8
SLOTS
 10
13.44988362666697
 20
12.95723878946352
 30
0.0
 42
0.003934427274373
  0
VERTEX
  5
324
  8
SLOTS
 10
13.36347715229934
 20
13.19892062109727
 30
0.0
 42
-0.0169492843759649
  0
VERTEX
  5
325
  8
SLOTS
 10
13.28338936557146
 20
13.44276920725581
 30
0.0
 42
-0.0152633851488388
  0
VERTEX
  5
326
  8
SLOTS
 10
13.20771267558654
 20
13.73558152626602
 30
0.0
 42
-0.0144842028363999
  0
VERTEX
  5
327
  8
SLOTS
 10
13.14645333371854
 20
14.04833412009183
 30
0.0
 42
-0.0117368497325811
  0
VERTEX
  5
328
  8
SLOTS
 10
13.13827577293689
 20
14.10595286558163
 30
0.0
 42
-0.0170987283469786
  0
VERTEX
  5
329
  8
SLOTS
 10
13.13495085921044
 20
14.14576725174294
 30
0.0
 42
-0.1874122461565958
  0
VERTEX
  5
32A
  8
SLOTS
 10
13.22133872942248
 20
14.07721107111173
 30
0.0
 42
-0.0827270901040103
  0
VERTEX
  5
32B
  8
SLOTS
 10
13.24495717088382
 20
14.01528623671416
 30
0.0
 42
-0.0043614436912338
  0
VERTEX
  5
32C
  8
SLOTS
 10
13.27139377591506
 20
13.87824804539804
 30
0.0
 42
0.0652330590571047
  0
VERTEX
  5
32D
  8
SLOTS
 10
13.30281258470604
 20
13.78087960468594
 30
0.0
 42
0.098824718502755
  0
VERTEX
  5
32E
  8
SLOTS
 10
13.41069052577498
 20
13.63581361652676
 30
0.0
 42
-0.0671834645606696
  0
VERTEX
  5
32F
  8
SLOTS
 10
13.43989595226631
 20
13.60129884844088
 30
0.0
 42
-0.1091545726907717
  0
VERTEX
  5
330
  8
SLOTS
 10
13.44989739068719
 20
13.57395530605617
 30
0.0
 42
0.1259595483865592
  0
VERTEX
  5
331
  8
SLOTS
 10
13.49350157831294
 20
13.4659790901711
 30
0.0
 42
0.1053168723194832
  0
VERTEX
  5
332
  8
SLOTS
 10
13.55822218047057
 20
13.40846245868751
 30
0.0
 42
-0.0981160593400243
  0
VERTEX
  5
333
  8
SLOTS
 10
13.62375602731969
 20
13.35187417228456
 30
0.0
 42
-0.1375210087500748
  0
VERTEX
  5
334
  8
SLOTS
 10
13.64392261045419
 20
13.30275564269568
 30
0.0
 42
0.0464253375393545
  0
VERTEX
  5
335
  8
SLOTS
 10
13.66435287695099
 20
13.20645028372024
 30
0.0
 42
0.1274109114745512
  0
VERTEX
  5
336
  8
SLOTS
 10
13.70970080096596
 20
13.13335514767772
 30
0.0
 42
0.0010814294573732
  0
VERTEX
  5
337
  8
SLOTS
 10
13.78107618456066
 20
13.06553049253474
 30
0.0
 42
-0.0494984251915708
  0
VERTEX
  5
338
  8
SLOTS
 10
13.80965966971375
 20
13.03255333119056
 30
0.0
 42
-0.128611042252245
  0
VERTEX
  5
339
  8
SLOTS
 10
13.83372557135341
 20
12.96850287510221
 30
0.0
 42
-0.0239759123822745
  0
VERTEX
  5
33A
  8
SLOTS
 10
13.83764135145154
 20
12.89821510850128
 30
0.0
 42
0.1149620887905645
  0
VERTEX
  5
33B
  8
SLOTS
 10
13.85414429609163
 20
12.82978005691417
 30
0.0
 42
0.0443642737025083
  0
VERTEX
  5
33C
  8
SLOTS
 10
13.90168239108843
 20
12.75297262588254
 30
0.0
 42
-0.1594566155819351
  0
VERTEX
  5
33D
  8
SLOTS
 10
13.93066535737202
 20
12.6674200712567
 30
0.0
 42
-0.0685467994775353
  0
VERTEX
  5
33E
  8
SLOTS
 10
13.92315631953972
 20
12.60837295109084
 30
0.0
 42
0.1388483097933371
  0
VERTEX
  5
33F
  8
SLOTS
 10
13.92454353144043
 20
12.49794642208553
 30
0.0
 42
0.0399362913571617
  0
VERTEX
  5
340
  8
SLOTS
 10
13.97060812685959
 20
12.37858847011385
 30
0.0
 42
-0.0555549103892446
  0
VERTEX
  5
341
  8
SLOTS
 10
14.04920411188435
 20
12.15437649659435
 30
0.0
 42
-0.0405116817361608
  0
VERTEX
  5
342
  8
SLOTS
 10
14.06532693410417
 20
12.04410678880009
 30
0.0
 42
-0.0481132241410901
  0
VERTEX
  5
343
  8
SLOTS
 10
14.06232762926015
 20
11.95025649319104
 30
0.0
 42
0.05255252490049
  0
VERTEX
  5
344
  8
SLOTS
 10
14.11975055805468
 20
12.02894845344374
 30
0.0
 42
0.0650798456677092
  0
VERTEX
  5
345
  8
SLOTS
 10
14.15009531652425
 20
12.1016493507769
 30
0.0
 42
0.0569954230444381
  0
VERTEX
  5
346
  8
SLOTS
 10
14.17976024624691
 20
12.2958727650366
 30
0.0
 42
0.0379062728989133
  0
VERTEX
  5
347
  8
SLOTS
 10
14.1525681489605
 20
13.00962179960524
 30
0.0
 42
0.0265799066426039
  0
VERTEX
  5
348
  8
SLOTS
 10
14.08575249932152
 20
13.40598261775821
 30
0.0
 42
0.0444340559846089
  0
VERTEX
  5
349
  8
SLOTS
 10
13.94369483249386
 20
13.85105213943591
 30
0.0
 42
0.0236443455519822
  0
VERTEX
  5
34A
  8
SLOTS
 10
13.79011099041058
 20
14.1730553808536
 30
0.0
 42
0.0027392710311293
  0
VERTEX
  5
34B
  8
SLOTS
 10
13.63124935061759
 20
14.46537099933502
 30
0.0
 42
-0.0509142378586247
  0
VERTEX
  5
34C
  8
SLOTS
 10
13.61513019941319
 20
14.50333268766363
 30
0.0
 42
-0.1218493463368763
  0
VERTEX
  5
34D
  8
SLOTS
 10
13.61295410075111
 20
14.54126725382489
 30
0.0
 42
0.041328165222671
  0
VERTEX
  5
34E
  8
SLOTS
 10
13.62260534539844
 20
14.63501085191259
 30
0.0
 42
0.0317346654543927
  0
VERTEX
  5
34F
  8
SLOTS
 10
13.60921956131426
 20
14.94278263935769
 30
0.0
 42
0.0604842699450608
  0
VERTEX
  5
350
  8
SLOTS
 10
13.48841912686679
 20
15.46402465490369
 30
0.0
 42
0.0497593477487574
  0
VERTEX
  5
351
  8
SLOTS
 10
13.2070338866042
 20
16.04953442354383
 30
0.0
 42
0.017774985234987
  0
VERTEX
  5
352
  8
SLOTS
 10
13.02066847857081
 20
16.33215055385185
 30
0.0
 42
0.0423812438285043
  0
VERTEX
  5
353
  8
SLOTS
 10
12.66262343751016
 20
16.75445762922569
 30
0.0
 42
0.036220102626239
  0
VERTEX
  5
354
  8
SLOTS
 10
12.23746722273614
 20
17.12021880438308
 30
0.0
 42
0.0589543643836971
  0
VERTEX
  5
355
  8
SLOTS
 10
11.93784595038204
 20
17.29187456207126
 30
0.0
 42
0.0510684115058593
  0
VERTEX
  5
356
  8
SLOTS
 10
11.71095928911091
 20
17.36216845773065
 30
0.0
 42
-0.0708403770037672
  0
VERTEX
  5
357
  8
SLOTS
 10
11.65496509636154
 20
17.38196541358174
 30
0.0
 42
-0.2300522079440543
  0
VERTEX
  5
358
  8
SLOTS
 10
11.61558962421468
 20
17.43515232931978
 30
0.0
 42
-0.0413211797594253
  0
VERTEX
  5
359
  8
SLOTS
 10
11.6099082710656
 20
17.49041448052589
 30
0.0
 42
0.1369799210061706
  0
VERTEX
  5
35A
  8
SLOTS
 10
11.5924587121701
 20
17.54844037282618
 30
0.0
 42
0.1359162194203961
  0
VERTEX
  5
35B
  8
SLOTS
 10
11.54722087268781
 20
17.58943545214557
 30
0.0
 42
-0.0123409078033026
  0
VERTEX
  5
35C
  8
SLOTS
 10
11.38768589263453
 20
17.67468128948086
 30
0.0
 42
-0.0249208524053953
  0
VERTEX
  5
35D
  8
SLOTS
 10
11.31200982291683
 20
17.72268190512972
 30
0.0
 42
0.1446602692803466
  0
VERTEX
  5
35E
  8
SLOTS
 10
11.32207797459448
 20
17.74225984374489
 30
0.0
 42
0.0567886166715416
  0
VERTEX
  5
35F
  8
SLOTS
 10
11.32815085344563
 20
17.82394575958929
 30
0.0
 42
0.2318610550608775
  0
VERTEX
  5
360
  8
SLOTS
 10
11.27152136662584
 20
17.92886917807242
 30
0.0
 42
0.0571347899934539
  0
VERTEX
  5
361
  8
SLOTS
 10
11.19205986008209
 20
17.97290677341578
 30
0.0
 42
-0.0358512167367264
  0
VERTEX
  5
362
  8
SLOTS
 10
11.05234834608388
 20
18.0427522231577
 30
0.0
 42
-0.0291589545854859
  0
VERTEX
  5
363
  8
SLOTS
 10
10.89321986063282
 20
18.15012042053078
 30
0.0
 42
0.0921810719137718
  0
VERTEX
  5
364
  8
SLOTS
 10
10.38094610488707
 20
18.40906360484611
 30
0.0
 42
0.0462067358615532
  0
VERTEX
  5
365
  8
SLOTS
 10
9.835126792401056
 20
18.51507171928145
 30
0.0
 42
0.0265390135176764
  0
VERTEX
  5
366
  8
SLOTS
 10
9.626706724179835
 20
18.52475285984193
 30
0.0
 42
0.0731622666337807
  0
VERTEX
  5
367
  8
SLOTS
 10
9.31125277642681
 20
18.47620089334391
 30
0.0
 42
0.0141979867210363
  0
VERTEX
  5
368
  8
SLOTS
 10
9.235693357426118
 20
18.45055848157801
 30
0.0
 42
0.0051480671385528
  0
VERTEX
  5
369
  8
SLOTS
 10
9.030233491408202
 20
18.37184480566943
 30
0.0
 42
0.0368893104124194
  0
VERTEX
  5
36A
  8
SLOTS
 10
8.971065070241083
 20
18.4179907689431
 30
0.0
 42
0.2844729209739035
  0
VERTEX
  5
36B
  8
SLOTS
 10
8.888528993090867
 20
18.42082461064906
 30
0.0
 42
0.1135601605316136
  0
VERTEX
  5
36C
  8
SLOTS
 10
8.83085979345779
 20
18.36751517800264
 30
0.0
 42
0.0358950784755124
  0
VERTEX
  5
36D
  8
SLOTS
 10
8.707385105832403
 20
18.15519960067216
 30
0.0
 42
0.0151803550002776
  0
VERTEX
  5
36E
  8
SLOTS
 10
8.477960947745787
 20
17.64778392045082
 30
0.0
 42
0.0587231684134563
  0
VERTEX
  5
36F
  8
SLOTS
 10
8.3708385550409
 20
17.27095105904761
 30
0.0
 42
0.0539053226635837
  0
VERTEX
  5
370
  8
SLOTS
 10
8.358332756885831
 20
17.03042213488038
 30
0.0
 42
0.0350860316863713
  0
VERTEX
  5
371
  8
SLOTS
 10
8.404721766498659
 20
16.66392228655045
 30
0.0
 42
0.0015752700127703
  0
VERTEX
  5
372
  8
SLOTS
 10
8.474382616188764
 20
16.31885233900498
 30
0.0
 42
-0.0342798182950999
  0
VERTEX
  5
373
  8
SLOTS
 10
8.51063326790574
 20
16.04957022645161
 30
0.0
 42
-0.0262892983275268
  0
VERTEX
  5
374
  8
SLOTS
 10
8.51350292622337
 20
15.82390640261089
 30
0.0
 42
-0.0286345579693
  0
VERTEX
  5
375
  8
SLOTS
 10
8.493412163348877
 20
15.61765794339973
 30
0.0
 42
0.0018044742497147
  0
VERTEX
  5
376
  8
SLOTS
 10
8.374324833674267
 20
15.67604574041367
 30
0.0
 42
-0.0375205299137148
  0
VERTEX
  5
377
  8
SLOTS
 10
8.286312383757318
 20
15.72728908200798
 30
0.0
 42
-0.0518860806550901
  0
VERTEX
  5
378
  8
SLOTS
 10
8.105698286943749
 20
15.88125979316896
 30
0.0
 42
0.0241708733984954
  0
VERTEX
  5
379
  8
SLOTS
 10
8.062730103669097
 20
15.9222039001441
 30
0.0
 42
0.1338912949625891
  0
VERTEX
  5
37A
  8
SLOTS
 10
8.049438983627573
 20
15.92857104671296
 30
0.0
 42
-0.0249195916085195
  0
VERTEX
  5
37B
  8
SLOTS
 10
7.992314728023006
 20
15.94196916373707
 30
0.0
 42
-0.0360124301275918
  0
VERTEX
  5
37C
  8
SLOTS
 10
7.84364516941196
 20
15.99660905031123
 30
0.0
 42
-0.0977942058190042
  0
VERTEX
  5
37D
  8
SLOTS
 10
7.645131537115631
 20
16.13807933734825
 30
0.0
 42
-0.0353271361271747
  0
VERTEX
  5
37E
  8
SLOTS
 10
7.572583451253959
 20
16.22669325675679
 30
0.0
 42
-0.0221720030638301
  0
VERTEX
  5
37F
  8
SLOTS
 10
7.474024283771522
 20
16.38009524373981
 30
0.0
 42
-0.0467021855980273
  0
VERTEX
  5
380
  8
SLOTS
 10
7.462937907520566
 20
16.40405296786776
 30
0.0
 42
-0.1768600052506929
  0
VERTEX
  5
381
  8
SLOTS
 10
7.463009869929039
 20
16.41122587104259
 30
0.0
 42
-0.0230725672483773
  0
VERTEX
  5
382
  8
SLOTS
 10
7.496323157984556
 20
16.48866219638112
 30
0.0
 42
0.0292345161243956
  0
VERTEX
  5
383
  8
SLOTS
 10
7.625749690342459
 20
16.80002031514432
 30
0.0
 42
0.0504089286206795
  0
VERTEX
  5
384
  8
SLOTS
 10
7.752657323583787
 20
17.33061756425887
 30
0.0
 42
0.0474381145486551
  0
VERTEX
  5
385
  8
SLOTS
 10
7.775388038437196
 20
17.9097324538703
 30
0.0
 42
0.0593020991453697
  0
VERTEX
  5
386
  8
SLOTS
 10
7.694945130276582
 20
18.3672656434262
 30
0.0
 42
0.0224137084685531
  0
VERTEX
  5
387
  8
SLOTS
 10
7.596277096080379
 20
18.64858725803461
 30
0.0
 42
0.0178269938547411
  0
VERTEX
  5
388
  8
SLOTS
 10
7.459248167733515
 20
18.95725896959981
 30
0.0
 42
-0.0111872687185282
  0
VERTEX
  5
389
  8
SLOTS
 10
7.423968834791808
 20
19.03396664210886
 30
0.0
 42
-0.1898735029109405
  0
VERTEX
  5
38A
  8
SLOTS
 10
7.422772079112099
 20
19.0697642096378
 30
0.0
 42
-0.0398944807311565
  0
VERTEX
  5
38B
  8
SLOTS
 10
7.559530233996785
 20
19.37468616168995
 30
0.0
 42
-0.0292867474069439
  0
VERTEX
  5
38C
  8
SLOTS
 10
7.692504298673652
 20
19.58682500433966
 30
0.0
 42
-0.0042132753450543
  0
VERTEX
  5
38D
  8
SLOTS
 10
7.82313621786867
 20
19.76716397780694
 30
0.0
 42
0.0178517072757225
  0
VERTEX
  5
38E
  8
SLOTS
 10
7.960300627489858
 20
19.96781970264997
 30
0.0
 42
0.0847894204915522
  0
VERTEX
  5
38F
  8
SLOTS
 10
8.076962795054895
 20
20.24784341571013
 30
0.0
 42
0.0217285292289119
  0
VERTEX
  5
390
  8
SLOTS
 10
8.091619287822503
 20
20.32742750026113
 30
0.0
 42
0.1072876565302848
  0
VERTEX
  5
391
  8
SLOTS
 10
8.090376320833114
 20
20.34395052535142
 30
0.0
 42
0.0164219902226789
  0
VERTEX
  5
392
  8
SLOTS
 10
8.213899329708847
 20
20.35918771867515
 30
0.0
 42
0.0125042469438543
  0
VERTEX
  5
393
  8
SLOTS
 10
8.617333657191002
 20
20.43284361243561
 30
0.0
 42
0.0582655322042855
  0
VERTEX
  5
394
  8
SLOTS
 10
9.051481954310184
 20
20.57767520129964
 30
0.0
 42
0.0615093155788728
  0
VERTEX
  5
395
  8
SLOTS
 10
9.418648375212706
 20
20.80851154419744
 30
0.0
 42
0.0183758777183201
  0
VERTEX
  5
396
  8
SLOTS
 10
9.542200243658073
 20
20.91706408592195
 30
0.0
 42
0.0158255854162991
  0
VERTEX
  5
397
  8
SLOTS
 10
9.676701005298359
 20
21.05260795292201
 30
0.0
 42
-0.040537552484334
  0
VERTEX
  5
398
  8
SLOTS
 10
9.699006955911619
 20
21.07297031987468
 30
0.0
 42
-0.1743605101543408
  0
VERTEX
  5
399
  8
SLOTS
 10
9.705878098015791
 20
21.07519862400111
 30
0.0
 42
-0.0271666538085446
  0
VERTEX
  5
39A
  8
SLOTS
 10
9.745010435983739
 20
21.07182600631733
 30
0.0
 42
-0.0117186348836861
  0
VERTEX
  5
39B
  8
SLOTS
 10
9.88013181035799
 20
21.04950293979041
 30
0.0
 42
-0.0382013625134332
  0
VERTEX
  5
39C
  8
SLOTS
 10
10.09639747237508
 20
20.99115330374209
 30
0.0
 42
-0.0431718791259626
  0
VERTEX
  5
39D
  8
SLOTS
 10
10.27694956113741
 20
20.90918029536706
 30
0.0
 42
0.0035402366116967
  0
VERTEX
  5
39E
  8
SLOTS
 10
10.46494787454014
 20
20.80515526782914
 30
0.0
 42
0.1133996248622512
  0
VERTEX
  5
39F
  8
SLOTS
 10
10.65444310192078
 20
20.75220443306534
 30
0.0
 42
0.0626671128619573
  0
VERTEX
  5
3A0
  8
SLOTS
 10
10.78747800937151
 20
20.76267240216955
 30
0.0
 42
0.0250100398929714
  0
VERTEX
  5
3A1
  8
SLOTS
 10
11.11008305536155
 20
20.84632114144501
 30
0.0
 42
-0.0031968093794893
  0
VERTEX
  5
3A2
  8
SLOTS
 10
11.19563613132983
 20
20.87253482670881
 30
0.0
 42
-0.0100823718612036
  0
VERTEX
  5
3A3
  8
SLOTS
 10
11.22297601830504
 20
20.88012381648933
 30
0.0
 42
0.0254559628393281
  0
VERTEX
  5
3A4
  8
SLOTS
 10
11.15736692361472
 20
20.93722201880438
 30
0.0
 42
0.0242958835825874
  0
VERTEX
  5
3A5
  8
SLOTS
 10
10.95863920992029
 20
21.07809783911809
 30
0.0
 42
0.0396419542348672
  0
VERTEX
  5
3A6
  8
SLOTS
 10
10.63346620482359
 20
21.25105788253942
 30
0.0
 42
-0.0138578418265703
  0
VERTEX
  5
3A7
  8
SLOTS
 10
10.29981637249845
 20
21.40704009067011
 30
0.0
 42
0.0047645228794952
  0
VERTEX
  5
3A8
  8
SLOTS
 10
10.14011519052136
 20
21.48527045482109
 30
0.0
 42
0.0359587464013701
  0
VERTEX
  5
3A9
  8
SLOTS
 10
9.957488132742991
 20
21.55696395678323
 30
0.0
 42
-0.0687942848166643
  0
VERTEX
  5
3AA
  8
SLOTS
 10
9.835076509826198
 20
21.61452845733395
 30
0.0
 42
0.0301769142153535
  0
VERTEX
  5
3AB
  8
SLOTS
 10
9.717458130918637
 20
21.68134308216964
 30
0.0
 42
0.1145257662634424
  0
VERTEX
  5
3AC
  8
SLOTS
 10
9.48956364768557
 20
21.73427336119415
 30
0.0
 42
0.0980491513629429
  0
VERTEX
  5
3AD
  8
SLOTS
 10
9.050486610116181
 20
21.64740548736351
 30
0.0
 42
0.0682385658229174
  0
VERTEX
  5
3AE
  8
SLOTS
 10
8.717509817073207
 20
21.45362190005786
 30
0.0
 42
0.0521589495575808
  0
VERTEX
  5
3AF
  8
SLOTS
 10
8.355501864909149
 20
21.10431214151811
 30
0.0
 42
-0.0122905229139692
  0
VERTEX
  5
3B0
  8
SLOTS
 10
8.255897811283395
 20
20.9915696406441
 30
0.0
 42
-0.038674427942505
  0
VERTEX
  5
3B1
  8
SLOTS
 10
8.095909406655869
 20
20.84392286558622
 30
0.0
 42
-0.0030207420673608
  0
VERTEX
  5
3B2
  8
SLOTS
 10
8.085610616426735
 20
20.83589769376474
 30
0.0
 42
-0.0007604802424348
  0
VERTEX
  5
3B3
  8
SLOTS
 10
8.044462725273297
 20
20.80433104723674
 30
0.0
 42
0.0735979076099291
  0
VERTEX
  5
3B4
  8
SLOTS
 10
7.894601363208001
 20
20.88981720987486
 30
0.0
 42
0.2355967698741888
  0
VERTEX
  5
3B5
  8
SLOTS
 10
7.759129723636119
 20
20.87741567330616
 30
0.0
 42
0.0895228736548205
  0
VERTEX
  5
3B6
  8
SLOTS
 10
7.662836034665185
 20
20.7907864764372
 30
0.0
 42
0.035638316616375
  0
VERTEX
  5
3B7
  8
SLOTS
 10
7.483463872125572
 20
20.52194029939825
 30
0.0
 42
-0.002926917906516
  0
VERTEX
  5
3B8
  8
SLOTS
 10
7.342350450423269
 20
20.27717159749863
 30
0.0
 42
-0.0084867110414539
  0
VERTEX
  5
3B9
  8
SLOTS
 10
7.291765580885168
 20
20.19388269867625
 30
0.0
 42
0.0639051042098975
  0
VERTEX
  5
3BA
  8
SLOTS
 10
7.223987990305659
 20
20.04807846768662
 30
0.0
 42
0.0054658822365241
  0
VERTEX
  5
3BB
  8
SLOTS
 10
7.17774725128307
 20
19.89675759739941
 30
0.0
 42
-0.0453978653503077
  0
VERTEX
  5
3BC
  8
SLOTS
 10
7.107939477213357
 20
19.7201231348104
 30
0.0
 42
-0.0482440147008161
  0
VERTEX
  5
3BD
  8
SLOTS
 10
7.012446478260883
 20
19.56899319048996
 30
0.0
 42
0.0145365657512354
  0
VERTEX
  5
3BE
  8
SLOTS
 10
6.950273711432775
 20
19.48387538309455
 30
0.0
 42
0.0777909546101138
  0
VERTEX
  5
3BF
  8
SLOTS
 10
6.895460579123629
 20
19.36938779955058
 30
0.0
 42
0.0392514884913129
  0
VERTEX
  5
3C0
  8
SLOTS
 10
6.880837375463758
 20
19.30170598575178
 30
0.0
 42
0.0227726213428537
  0
VERTEX
  5
3C1
  8
SLOTS
 10
6.870265341973208
 20
19.18294746125539
 30
0.0
 42
0.0638164645955844
  0
VERTEX
  5
3C2
  8
SLOTS
 10
6.842008033222055
 20
19.17579134286645
 30
0.0
 42
0.1666968354824432
  0
VERTEX
  5
3C3
  8
SLOTS
 10
6.807368663726908
 20
19.14626689421134
 30
0.0
 42
0.099893251639808
  0
VERTEX
  5
3C4
  8
SLOTS
 10
6.773802613059273
 20
19.04999035373423
 30
0.0
 42
0.0414502512095457
  0
VERTEX
  5
3C5
  8
SLOTS
 10
6.76077389059102
 20
18.80662941636289
 30
0.0
 42
0.0007889759095705
  0
VERTEX
  5
3C6
  8
SLOTS
 10
6.771871628603119
 20
18.44812144947041
 30
0.0
 42
-0.0114931307587614
  0
VERTEX
  5
3C7
  8
SLOTS
 10
6.774367856105015
 20
18.18642000093506
 30
0.0
 42
-0.0133349432055773
  0
VERTEX
  5
3C8
  8
SLOTS
 10
6.749539628219503
 20
17.56783175954786
 30
0.0
 42
-0.022500110303763
  0
VERTEX
  5
3C9
  8
SLOTS
 10
6.70859985678733
 20
17.2030932540052
 30
0.0
 42
0.033890792277077
  0
VERTEX
  5
3CA
  8
SLOTS
 10
6.67742078034706
 20
16.85374451083793
 30
0.0
 42
0.0396901390277308
  0
VERTEX
  5
3CB
  8
SLOTS
 10
6.694813037020255
 20
16.55463292543784
 30
0.0
 42
-0.0698012860095194
  0
VERTEX
  5
3CC
  8
SLOTS
 10
6.694705713903134
 20
16.49978925019652
 30
0.0
 42
-0.0352590221468142
  0
VERTEX
  5
3CD
  8
SLOTS
 10
6.642725862740566
 20
16.25807670106616
 30
0.0
 42
-0.0359858011341223
  0
VERTEX
  5
3CE
  8
SLOTS
 10
6.584373307972066
 20
16.10030490992639
 30
0.0
 42
0.058656765345859
  0
VERTEX
  5
3CF
  8
SLOTS
 10
6.533215410720892
 20
15.94005564073523
 30
0.0
 42
0.0385812326447296
  0
VERTEX
  5
3D0
  8
SLOTS
 10
6.517721670402357
 20
15.80557916629911
 30
0.0
 42
-0.030547934714312
  0
VERTEX
  5
3D1
  8
SLOTS
 10
6.46438764953565
 20
15.26676191229378
 30
0.0
 42
-0.0109139832709707
  0
VERTEX
  5
3D2
  8
SLOTS
 10
6.415070361440121
 20
14.99813159692293
 30
0.0
 42
-0.0476702327455095
  0
VERTEX
  5
3D3
  8
SLOTS
 10
6.396631806227361
 20
14.93824094207593
 30
0.0
 42
-0.0375492384202818
  0
VERTEX
  5
3D4
  8
SLOTS
 10
6.378294159572963
 20
15.03438014065826
 30
0.0
 42
-0.0226584237706138
  0
VERTEX
  5
3D5
  8
SLOTS
 10
6.352130772183667
 20
15.41795234485542
 30
0.0
 42
-0.0037870523705663
  0
VERTEX
  5
3D6
  8
SLOTS
 10
6.347006096597058
 20
15.75460740414028
 30
0.0
 42
0.0371608855894099
  0
VERTEX
  5
3D7
  8
SLOTS
 10
6.328601550574746
 20
15.97872914418457
 30
0.0
 42
0.0103132812231118
  0
VERTEX
  5
3D8
  8
SLOTS
 10
6.310491292776197
 20
16.0800650493638
 30
0.0
 42
-0.027423560388405
  0
VERTEX
  5
3D9
  8
SLOTS
 10
6.283315665546676
 20
16.2692894215238
 30
0.0
 42
0.0136185324406031
  0
VERTEX
  5
3DA
  8
SLOTS
 10
6.267211927154632
 20
16.40865204710368
 30
0.0
 42
0.0515082797908796
  0
VERTEX
  5
3DB
  8
SLOTS
 10
6.221304533258764
 20
16.59210628425222
 30
0.0
 42
0.0298365153867804
  0
VERTEX
  5
3DC
  8
SLOTS
 10
6.177742191047152
 20
16.69294511429563
 30
0.0
 42
0.0218698790920598
  0
VERTEX
  5
3DD
  8
SLOTS
 10
6.104460758191342
 20
16.8235950302325
 30
0.0
 42
-0.015582824286735
  0
VERTEX
  5
3DE
  8
SLOTS
 10
6.082499020698129
 20
16.8616212748946
 30
0.0
 42
-0.0860827028303494
  0
VERTEX
  5
3DF
  8
SLOTS
 10
6.065972417465689
 20
16.91135246291147
 30
0.0
 42
-0.0552231172381456
  0
VERTEX
  5
3E0
  8
SLOTS
 10
6.06166624486395
 20
17.02239259030537
 30
0.0
 42
0.0222829053608946
  0
VERTEX
  5
3E1
  8
SLOTS
 10
6.067239474964453
 20
17.22864505194649
 30
0.0
 42
0.0686727146107048
  0
VERTEX
  5
3E2
  8
SLOTS
 10
6.032678790091887
 20
17.45030280447816
 30
0.0
 42
-0.0439521017269529
  0
VERTEX
  5
3E3
  8
SLOTS
 10
6.021316494781762
 20
17.5052376668551
 30
0.0
 42
-0.0253176491975213
  0
VERTEX
  5
3E4
  8
SLOTS
 10
6.012489704678389
 20
17.63983788672499
 30
0.0
 42
0.0492762523531762
  0
VERTEX
  5
3E5
  8
SLOTS
 10
5.984162917486547
 20
17.8887110745598
 30
0.0
 42
0.0435505404611159
  0
VERTEX
  5
3E6
  8
SLOTS
 10
5.927239071044573
 20
18.07348187469637
 30
0.0
 42
-0.0712605778873924
  0
VERTEX
  5
3E7
  8
SLOTS
 10
5.915576391063612
 20
18.1204040844599
 30
0.0
 42
-0.1134133674092507
  0
VERTEX
  5
3E8
  8
SLOTS
 10
5.924726154278813
 20
18.19350092847659
 30
0.0
 42
0.0035161864980903
  0
VERTEX
  5
3E9
  8
SLOTS
 10
5.955724836514459
 20
18.28020665994648
 30
0.0
 42
0.1680845701356612
  0
VERTEX
  5
3EA
  8
SLOTS
 10
5.956134363233826
 20
18.40557541460744
 30
0.0
 42
-0.0750481398997842
  0
VERTEX
  5
3EB
  8
SLOTS
 10
5.94403010131261
 20
18.47210335036229
 30
0.0
 42
-0.0865316642807072
  0
VERTEX
  5
3EC
  8
SLOTS
 10
5.950228781660628
 20
18.51531575129026
 30
0.0
 42
0.0682282770315505
  0
VERTEX
  5
3ED
  8
SLOTS
 10
5.981291223419111
 20
18.687126154196
 30
0.0
 42
0.0229116849462306
  0
VERTEX
  5
3EE
  8
SLOTS
 10
5.979561208763011
 20
19.22809380036153
 30
0.0
 42
0.0975529082734575
  0
VERTEX
  5
3EF
  8
SLOTS
 10
5.948652479207042
 20
19.35250830525944
 30
0.0
 42
0.1190608324106798
  0
VERTEX
  5
3F0
  8
SLOTS
 10
5.852219145909051
 20
19.47298594040678
 30
0.0
 42
0.003794071674364
  0
VERTEX
  5
3F1
  8
SLOTS
 10
5.71837160927079
 20
19.5749915411712
 30
0.0
 42
-0.0430982737795366
  0
VERTEX
  5
3F2
  8
SLOTS
 10
5.620434468284406
 20
19.66259439636154
 30
0.0
 42
-0.1383456397495078
  0
VERTEX
  5
3F3
  8
SLOTS
 10
5.533468968277635
 20
19.82965997801936
 30
0.0
 42
-0.0123250696575138
  0
VERTEX
  5
3F4
  8
SLOTS
 10
5.530389907536963
 20
19.84654669925732
 30
0.0
 42
-0.0057992282502243
  0
VERTEX
  5
3F5
  8
SLOTS
 10
5.525151514737606
 20
19.8826452631642
 30
0.0
 42
0.0118015354993125
  0
VERTEX
  5
3F6
  8
SLOTS
 10
5.688579032572594
 20
19.90864215858315
 30
0.0
 42
0.0838969468213949
  0
VERTEX
  5
3F7
  8
SLOTS
 10
5.862543650777646
 20
19.97189887739204
 30
0.0
 42
0.0265871260292517
  0
VERTEX
  5
3F8
  8
SLOTS
 10
6.055271693880472
 20
20.09524630595989
 30
0.0
 42
0.1486585015200102
  0
VERTEX
  5
3F9
  8
SLOTS
 10
6.080672708973547
 20
20.12844141835738
 30
0.0
 42
0.0526850013841642
  0
VERTEX
  5
3FA
  8
SLOTS
 10
6.088177126174247
 20
20.15749963673601
 30
0.0
 42
-0.1288565195022361
  0
VERTEX
  5
3FB
  8
SLOTS
 10
6.135233356870461
 20
20.26764148269192
 30
0.0
 42
0.0224027286397108
  0
VERTEX
  5
3FC
  8
SLOTS
 10
6.212246473354086
 20
20.37660450102999
 30
0.0
 42
0.0167396527040396
  0
VERTEX
  5
3FD
  8
SLOTS
 10
6.303574831729986
 20
20.53000878822027
 30
0.0
 42
-0.0341207331392813
  0
VERTEX
  5
3FE
  8
SLOTS
 10
6.321250195987595
 20
20.5574802123414
 30
0.0
 42
-0.14395913175522
  0
VERTEX
  5
3FF
  8
SLOTS
 10
6.355099391189503
 20
20.58294115788433
 30
0.0
 42
-0.0333416137444929
  0
VERTEX
  5
400
  8
SLOTS
 10
6.401997671829361
 20
20.59705311800927
 30
0.0
 42
0.0621025787524965
  0
VERTEX
  5
401
  8
SLOTS
 10
6.585983759504421
 20
20.66414549109906
 30
0.0
 42
0.0481573970982696
  0
VERTEX
  5
402
  8
SLOTS
 10
6.782042933256589
 20
20.78980250065347
 30
0.0
 42
0.0040878078773003
  0
VERTEX
  5
403
  8
SLOTS
 10
6.961268412202023
 20
20.93307597942482
 30
0.0
 42
-0.0211139603486247
  0
VERTEX
  5
404
  8
SLOTS
 10
6.995564510174127
 20
20.95862857936648
 30
0.0
 42
0.2063931517242736
  0
VERTEX
  5
405
  8
SLOTS
 10
7.007989358750808
 20
20.97820138959777
 30
0.0
 42
0.0904917293915313
  0
VERTEX
  5
406
  8
SLOTS
 10
6.92694870198619
 20
20.9973281521584
 30
0.0
 42
0.0402697764450159
  0
VERTEX
  5
407
  8
SLOTS
 10
6.646817384998901
 20
20.98914182569012
 30
0.0
 42
0.0476388226990332
  0
VERTEX
  5
408
  8
SLOTS
 10
6.457783581882046
 20
20.94985421214635
 30
0.0
 42
0.0454535890945706
  0
VERTEX
  5
409
  8
SLOTS
 10
5.958726145091275
 20
20.74414990156436
 30
0.0
 42
0.0449697319396927
  0
VERTEX
  5
40A
  8
SLOTS
 10
5.746841755967639
 20
20.60783278381848
 30
0.0
 42
0.0530659993024332
  0
VERTEX
  5
40B
  8
SLOTS
 10
5.593084684119781
 20
20.45945317813932
 30
0.0
 42
0.0223066034811113
  0
VERTEX
  5
40C
  8
SLOTS
 10
5.510501257594325
 20
20.35139440919629
 30
0.0
 42
0.0011995066722905
  0
VERTEX
  5
40D
  8
SLOTS
 10
5.328677740385605
 20
20.08876412677911
 30
0.0
 42
0.0280778494890221
  0
VERTEX
  5
40E
  8
SLOTS
 10
5.274584970031006
 20
20.09147023663028
 30
0.0
 42
0.218500011687881
  0
VERTEX
  5
40F
  8
SLOTS
 10
5.220718662331494
 20
20.06634794223569
 30
0.0
 42
0.0772802238666766
  0
VERTEX
  5
410
  8
SLOTS
 10
5.190974631062684
 20
20.01782445954111
 30
0.0
 42
-0.0004860735038933
  0
VERTEX
  5
411
  8
SLOTS
 10
5.103234644962139
 20
19.80833372558787
 30
0.0
 42
0.0115635598380016
  0
VERTEX
  5
412
  8
SLOTS
 10
4.953912245276819
 20
19.42839812348121
 30
0.0
 42
0.0630961142613078
  0
VERTEX
  5
413
  8
SLOTS
 10
4.899027186799074
 20
19.1889512720942
 30
0.0
 42
0.0344877085298026
  0
VERTEX
  5
414
  8
SLOTS
 10
4.892825256015081
 20
18.98466994216056
 30
0.0
 42
0.0387167171179737
  0
VERTEX
  5
415
  8
SLOTS
 10
4.913901062565812
 20
18.80378571923322
 30
0.0
 42
0.0931287431538936
  0
VERTEX
  5
416
  8
SLOTS
 10
5.008936696334597
 20
18.56523046779347
 30
0.0
 42
0.0052084916972887
  0
VERTEX
  5
417
  8
SLOTS
 10
5.154245308809674
 20
18.34112618142861
 30
0.0
 42
-0.0073557734313669
  0
VERTEX
  5
418
  8
SLOTS
 10
5.263877392921758
 20
18.17044327034833
 30
0.0
 42
0.0057613295667512
  0
VERTEX
  5
419
  8
SLOTS
 10
5.372964655466155
 20
17.99941163832616
 30
0.0
 42
-0.2003748587577374
  0
VERTEX
  5
41A
  8
SLOTS
 10
5.38449827535762
 20
17.93736035603885
 30
0.0
 42
0.0256821817310321
  0
VERTEX
  5
41B
  8
SLOTS
 10
5.365890658532013
 20
17.82233749349181
 30
0.0
 42
0.0736969822107875
  0
VERTEX
  5
41C
  8
SLOTS
 10
5.375412256975816
 20
17.57253023598039
 30
0.0
 42
0.0754471467580368
  0
VERTEX
  5
41D
  8
SLOTS
 10
5.455907534683533
 20
17.34192225480577
 30
0.0
 42
0.0156904423491665
  0
VERTEX
  5
41E
  8
SLOTS
 10
5.507750046324122
 20
17.25091824391028
 30
0.0
 42
0.0036095623815497
  0
VERTEX
  5
41F
  8
SLOTS
 10
5.748145691012243
 20
16.86441270274586
 30
0.0
 42
0.0626096137146234
  0
VERTEX
  5
420
  8
SLOTS
 10
5.677747495091136
 20
16.71820181715159
 30
0.0
 42
-0.0438521594023604
  0
VERTEX
  5
421
  8
SLOTS
 10
5.612866705295028
 20
16.56946038993429
 30
0.0
 42
0.0968169922711849
  0
VERTEX
  5
422
  8
SLOTS
 10
5.576738046581305
 20
16.45507466742777
 30
0.0
 42
0.0473595143869656
  0
VERTEX
  5
423
  8
SLOTS
 10
5.575494768647649
 20
16.3869674036765
 30
0.0
 42
0.0343531634026864
  0
VERTEX
  5
424
  8
SLOTS
 10
5.593007229361741
 20
16.26710227229272
 30
0.0
 42
-0.0131047450260613
  0
VERTEX
  5
425
  8
SLOTS
 10
5.683334811769877
 20
15.79113419306734
 30
0.0
 42
0.0482211542900393
  0
VERTEX
  5
426
  8
SLOTS
 10
5.753294783529416
 20
15.5256985840273
 30
0.0
 42
-0.0124176493180895
  0
VERTEX
  5
427
  8
SLOTS
 10
5.84204722252681
 20
15.26594203499134
 30
0.0
 42
-0.0322490960152526
  0
VERTEX
  5
428
  8
SLOTS
 10
5.909234476957494
 20
14.99130728053697
 30
0.0
 42
0.0359670747136602
  0
VERTEX
  5
429
  8
SLOTS
 10
6.037795169940853
 20
14.48221352390698
 30
0.0
 42
0.0119892315626198
  0
VERTEX
  5
42A
  8
SLOTS
 10
6.104286005557226
 20
14.29616463288018
 30
0.0
 42
0.0560853619895617
  0
VERTEX
  5
42B
  8
SLOTS
 10
6.123820175471241
 20
14.25857586090424
 30
0.0
 42
0.074343467526957
  0
VERTEX
  5
42C
  8
SLOTS
 10
6.126894502710041
 20
14.25520712065436
 30
0.0
 42
-0.2017998687706831
  0
VERTEX
  5
42D
  8
SLOTS
 10
6.129040471687989
 20
14.25118285476006
 30
0.0
 42
-0.1564011524079103
  0
VERTEX
  5
42E
  8
SLOTS
 10
6.127464192036388
 20
14.24408868323235
 30
0.0
 42
0.0220970877966045
  0
VERTEX
  5
42F
  8
SLOTS
 10
6.114014441389227
 20
14.2185506014826
 30
0.0
 42
-0.0511751441451225
  0
VERTEX
  5
430
  8
SLOTS
 10
5.99228162633275
 20
14.0167609236353
 30
0.0
 42
-0.0532703165424258
  0
VERTEX
  5
431
  8
SLOTS
 10
5.837676247066863
 20
13.851307918269
 30
0.0
 42
0.0236022885507925
  0
VERTEX
  5
432
  8
SLOTS
 10
5.799200265651725
 20
13.81473590257149
 30
0.0
 42
0.0517026582134157
  0
VERTEX
  5
433
  8
SLOTS
 10
5.784306390797263
 20
13.79555540219854
 30
0.0
 42
-0.0538767733153042
  0
VERTEX
  5
434
  8
SLOTS
 10
5.675919346778214
 20
14.0713187684662
 30
0.0
 42
-0.0005253593431908
  0
VERTEX
  5
435
  8
SLOTS
 10
5.587008903594723
 20
14.39791168079695
 30
0.0
 42
-0.0155282912915076
  0
VERTEX
  5
436
  8
SLOTS
 10
5.531735268972081
 20
14.63011554830611
 30
0.0
 42
-0.0274837480239184
  0
VERTEX
  5
437
  8
SLOTS
 10
5.492489055055689
 20
14.89392805644436
 30
0.0
 42
0.0123636035988641
  0
VERTEX
  5
438
  8
SLOTS
 10
5.460211038067236
 20
15.16747555802297
 30
0.0
 42
0.0582030823097314
  0
VERTEX
  5
439
  8
SLOTS
 10
5.415076582199449
 20
15.33820103960253
 30
0.0
 42
0.1174382783576607
  0
VERTEX
  5
43A
  8
SLOTS
 10
5.283664521697968
 20
15.52681030377169
 30
0.0
 42
0.2220529015230457
  0
VERTEX
  5
43B
  8
SLOTS
 10
5.163136423658885
 20
15.56296643011556
 30
0.0
 42
0.0357426729188693
  0
VERTEX
  5
43C
  8
SLOTS
 10
5.144544286765965
 20
15.55886679245525
 30
0.0
 42
0.0276162331878609
  0
VERTEX
  5
43D
  8
SLOTS
 10
5.121356235238157
 20
15.55056755535617
 30
0.0
 42
0.0127516370339686
  0
VERTEX
  5
43E
  8
SLOTS
 10
4.997214422885774
 20
15.78988105014609
 30
0.0
 42
0.0268231925430449
  0
VERTEX
  5
43F
  8
SLOTS
 10
4.929351103569878
 20
15.89868879416138
 30
0.0
 42
-0.0245074806374657
  0
VERTEX
  5
440
  8
SLOTS
 10
4.815879996481106
 20
16.07875969657141
 30
0.0
 42
-0.0308527692042285
  0
VERTEX
  5
441
  8
SLOTS
 10
4.742072076241007
 20
16.23093130174798
 30
0.0
 42
0.0037334529503579
  0
VERTEX
  5
442
  8
SLOTS
 10
4.699606580338077
 20
16.33210943811788
 30
0.0
 42
0.1565218644941988
  0
VERTEX
  5
443
  8
SLOTS
 10
4.671655138556355
 20
16.36427768191627
 30
0.0
 42
0.2433405030819027
  0
VERTEX
  5
444
  8
SLOTS
 10
4.645722851651965
 20
16.36603069838898
 30
0.0
 42
-0.000289393753319
  0
VERTEX
  5
445
  8
SLOTS
 10
4.579077816769358
 20
16.3371180408278
 30
0.0
 42
-0.0626886388966611
  0
VERTEX
  5
446
  8
SLOTS
 10
4.498249845445997
 20
16.31356600748917
 30
0.0
 42
-0.0479721184260159
  0
VERTEX
  5
447
  8
SLOTS
 10
4.388626011304479
 20
16.30671107922594
 30
0.0
 42
-0.159217754840916
  0
VERTEX
  5
448
  8
SLOTS
 10
4.362255080927756
 20
16.31631348616711
 30
0.0
 42
0.0365500254098206
  0
VERTEX
  5
449
  8
SLOTS
 10
4.269642607755825
 20
16.37858095155869
 30
0.0
 42
0.0564055278019319
  0
VERTEX
  5
44A
  8
SLOTS
 10
4.215951634543162
 20
16.4016722517308
 30
0.0
 42
0.0135098224832926
  0
VERTEX
  5
44B
  8
SLOTS
 10
4.172641045337719
 20
16.41349363490363
 30
0.0
 42
-0.0629413270504644
  0
VERTEX
  5
44C
  8
SLOTS
 10
4.125339388862268
 20
16.43157693323942
 30
0.0
 42
0.0164419490671654
  0
VERTEX
  5
44D
  8
SLOTS
 10
3.9438095399208
 20
16.52106142161392
 30
0.0
 42
0.0176948738841379
  0
VERTEX
  5
44E
  8
SLOTS
 10
3.531709991913686
 20
16.69032298628642
 30
0.0
 42
0.1038999858996005
  0
VERTEX
  5
44F
  8
SLOTS
 10
3.014522517267079
 20
16.76704927802211
 30
0.0
 42
0.0589821387633493
  0
VERTEX
  5
450
  8
SLOTS
 10
2.656265907847107
 20
16.70274315996638
 30
0.0
 42
0.1292108576560325
  0
VERTEX
  5
451
  8
SLOTS
 10
2.130113518251904
 20
16.37839344144913
 30
0.0
 42
0.0421703991693295
  0
VERTEX
  5
452
  8
SLOTS
 10
1.956622143758698
 20
16.16256433676076
 30
0.0
 42
0.0185492705004746
  0
VERTEX
  5
453
  8
SLOTS
 10
1.802593360988908
 20
15.91451603270344
 30
0.0
 42
-0.0081515012771102
  0
VERTEX
  5
454
  8
SLOTS
 10
1.688589234395033
 20
15.72210959489544
 30
0.0
 42
0.0250405777172059
  0
VERTEX
  5
455
  8
SLOTS
 10
1.489063278695409
 20
15.35785974966992
 30
0.0
 42
-0.0025433772240187
  0
VERTEX
  5
456
  8
SLOTS
 10
1.464924900678857
 20
15.30866396214149
 30
0.0
 42
-0.0048349991588118
  0
VERTEX
  5
457
  8
SLOTS
 10
1.451846568797122
 20
15.28297502296666
 30
0.0
 42
0.084370973050612
  0
VERTEX
  5
458
  8
SLOTS
 10
1.476969589431305
 20
15.29338559931778
 30
0.0
 42
-0.0049897120246949
  0
VERTEX
  5
459
  8
SLOTS
 10
1.569404825408188
 20
15.3502119262553
 30
0.0
 42
-0.0041381455705747
  0
VERTEX
  5
45A
  8
SLOTS
 10
1.956862455410003
 20
15.57876947415954
 30
0.0
 42
0.0363649617071636
  0
VERTEX
  5
45B
  8
SLOTS
 10
2.197066462371674
 20
15.74217769594003
 30
0.0
 42
0.0155822960396498
  0
VERTEX
  5
45C
  8
SLOTS
 10
2.317776859474248
 20
15.84410564938738
 30
0.0
 42
0.007800827827561
  0
VERTEX
  5
45D
  8
SLOTS
 10
2.549074704679998
 20
16.05871851090247
 30
0.0
 42
-0.0085985144748519
  0
VERTEX
  5
45E
  8
SLOTS
 10
2.639937469370689
 20
15.95876424300561
 30
0.0
 42
0.1768888707393109
  0
VERTEX
  5
45F
  8
SLOTS
 10
2.73095586990669
 20
15.90903496050229
 30
0.0
 42
0.1684257406010828
  0
VERTEX
  5
460
  8
SLOTS
 10
2.833351212244876
 20
15.92807290031531
 30
0.0
 42
-0.0064647530403039
  0
VERTEX
  5
461
  8
SLOTS
 10
2.949221748081399
 20
15.99206964875341
 30
0.0
 42
-0.010766472465872
  0
VERTEX
  5
462
  8
SLOTS
 10
2.980227513340802
 20
16.00782558569021
 30
0.0
 42
-0.0078290334720692
  0
VERTEX
  5
463
  8
SLOTS
 10
3.023640357163534
 20
16.02789166735872
 30
0.0
  0
VERTEX
  5
464
  8
SLOTS
 10
3.004354970038233
 20
15.93146233603191
 30
0.0
 42
0.0291257520814695
  0
VERTEX
  5
465
  8
SLOTS
 10
3.153486302714366
 20
15.96557495687829
 30
0.0
 42
0.0574762869844378
  0
VERTEX
  5
466
  8
SLOTS
 10
3.300015461311932
 20
16.02717007705661
 30
0.0
 42
0.0084784172214359
  0
VERTEX
  5
467
  8
SLOTS
 10
3.324094329424386
 20
16.0412691548216
 30
0.0
 42
0.0035714571650614
  0
VERTEX
  5
468
  8
SLOTS
 10
3.380429601782788
 20
16.07610513517199
 30
0.0
  0
VERTEX
  5
469
  8
SLOTS
 10
3.365964363588678
 20
15.8977117107125
 30
0.0
 42
0.0093000224393286
  0
VERTEX
  5
46A
  8
SLOTS
 10
3.576658886087112
 20
15.99682521525016
 30
0.0
 42
0.0127035940660265
  0
VERTEX
  5
46B
  8
SLOTS
 10
3.727573757139125
 20
16.07610513517199
 30
0.0
  0
VERTEX
  5
46C
  8
SLOTS
 10
3.732396301770577
 20
15.93628248496312
 30
0.0
 42
-0.0596223696232049
  0
VERTEX
  5
46D
  8
SLOTS
 10
3.870595414309808
 20
15.9879782013369
 30
0.0
 42
-0.119909260658773
  0
VERTEX
  5
46E
  8
SLOTS
 10
4.022244595155935
 20
15.98800393428262
 30
0.0
 42
-0.1129308949207821
  0
VERTEX
  5
46F
  8
SLOTS
 10
4.07580784735888
 20
15.96123766872895
 30
0.0
 42
-0.2125787720331201
  0
VERTEX
  5
470
  8
SLOTS
 10
4.09048644897662
 20
15.9318731342902
 30
0.0
 42
0.0103548445269782
  0
VERTEX
  5
471
  8
SLOTS
 10
4.096400607464195
 20
15.84148167890365
 30
0.0
 42
0.1826486187267998
  0
VERTEX
  5
472
  8
SLOTS
 10
4.134176427980114
 20
15.76274948842538
 30
0.0
 42
0.0988324460272912
  0
VERTEX
  5
473
  8
SLOTS
 10
4.206493725986788
 20
15.71689493606443
 30
0.0
 42
0.0000486843690152
  0
VERTEX
  5
474
  8
SLOTS
 10
4.431743279042314
 20
15.63005307407179
 30
0.0
 42
-0.0141403847761505
  0
VERTEX
  5
475
  8
SLOTS
 10
4.630516293769865
 20
15.54691210284572
 30
0.0
 42
-0.0136255938462072
  0
VERTEX
  5
476
  8
SLOTS
 10
4.831689720616024
 20
15.44931567939791
 30
0.0
 42
0.0238225460330521
  0
VERTEX
  5
477
  8
SLOTS
 10
4.779327179626916
 20
15.40761850800629
 30
0.0
 42
0.197474757814465
  0
VERTEX
  5
478
  8
SLOTS
 10
4.747107806599807
 20
15.34270806910658
 30
0.0
 42
0.0438098798546608
  0
VERTEX
  5
479
  8
SLOTS
 10
4.747945902417862
 20
15.29270597913432
 30
0.0
 42
0.0250514358616167
  0
VERTEX
  5
47A
  8
SLOTS
 10
4.779447671779679
 20
15.09032390379306
 30
0.0
 42
0.0413317333541176
  0
VERTEX
  5
47B
  8
SLOTS
 10
4.892004262929108
 20
14.70914317976889
 30
0.0
 42
0.0426618834116111
  0
VERTEX
  5
47C
  8
SLOTS
 10
5.355018339830081
 20
13.76277386792029
 30
0.0
 42
-0.004016123048275
  0
VERTEX
  5
47D
  8
SLOTS
 10
5.378493743083237
 20
13.72291394125416
 30
0.0
 42
-0.3155602426683002
  0
VERTEX
  5
47E
  8
SLOTS
 10
5.376956804889327
 20
13.70531697851828
 30
0.0
 42
-0.0506715405991434
  0
VERTEX
  5
47F
  8
SLOTS
 10
5.354434171065149
 20
13.6834302925804
 30
0.0
 42
0.0196926641367768
  0
VERTEX
  5
480
  8
SLOTS
 10
5.259138932420708
 20
13.60165331466692
 30
0.0
 42
0.0018720652193629
  0
VERTEX
  5
481
  8
SLOTS
 10
5.222762253364967
 20
13.56760646451702
 30
0.0
 42
-0.261371884050857
  0
VERTEX
  5
482
  8
SLOTS
 10
5.210360211417649
 20
13.56450875675078
 30
0.0
 42
0.0149028023785418
  0
VERTEX
  5
483
  8
SLOTS
 10
5.107077303988542
 20
13.58942678222003
 30
0.0
 42
0.0554999765280932
  0
VERTEX
  5
484
  8
SLOTS
 10
4.963711661041161
 20
13.60323902632393
 30
0.0
 42
0.0134271485413106
  0
VERTEX
  5
485
  8
SLOTS
 10
4.905871804242563
 20
13.60082613787432
 30
0.0
 42
-0.0246101127318489
  0
VERTEX
  5
486
  8
SLOTS
 10
4.847992460912638
 20
13.59970690561545
 30
0.0
 42
-0.0465404554489275
  0
VERTEX
  5
487
  8
SLOTS
 10
4.859280897500313
 20
13.62334146934577
 30
0.0
 42
0.12316375444913
  0
VERTEX
  5
488
  8
SLOTS
 10
4.889521465622304
 20
13.72339729746449
 30
0.0
 42
0.1201285433803935
  0
VERTEX
  5
489
  8
SLOTS
 10
4.856330471219731
 20
13.89533359080984
 30
0.0
 42
0.034996564899275
  0
VERTEX
  5
48A
  8
SLOTS
 10
4.744519770809641
 20
14.10011239181164
 30
0.0
 42
0.0471386293170631
  0
VERTEX
  5
48B
  8
SLOTS
 10
4.397719578927904
 20
14.54333866237324
 30
0.0
 42
0.0694004110202435
  0
VERTEX
  5
48C
  8
SLOTS
 10
4.20938270967957
 20
14.69379965343635
 30
0.0
 42
0.0468588296773102
  0
VERTEX
  5
48D
  8
SLOTS
 10
4.105241376049943
 20
14.74306137132265
 30
0.0
 42
0.2275498117991869
  0
VERTEX
  5
48E
  8
SLOTS
 10
3.963189907829416
 20
14.72891032916579
 30
0.0
 42
0.0391876812074111
  0
VERTEX
  5
48F
  8
SLOTS
 10
3.940551083332895
 20
14.71257308838335
 30
0.0
 42
0.0086610640800068
  0
SEQEND
  5
492
  8
SLOTS
  0
ENDSEC
  0
EOF
